<svg width="298" height="232" viewBox="0 0 298 232" fill="none" xmlns="http://www.w3.org/2000/svg">
<path d="M13.3 23.35L0.0500001 0.499998H3.05L15 21.3L14.15 21.35L26.05 0.499998H29L15.75 23.35V36H13.3V23.35ZM28.4797 26.1C28.4797 24.2 28.9297 22.4667 29.8297 20.9C30.763 19.3333 32.013 18.1 33.5797 17.2C35.1797 16.2667 36.963 15.8 38.9297 15.8C40.9297 15.8 42.713 16.2667 44.2797 17.2C45.8464 18.1 47.0797 19.3333 47.9797 20.9C48.8797 22.4667 49.3297 24.2 49.3297 26.1C49.3297 28 48.8797 29.7333 47.9797 31.3C47.0797 32.8667 45.8297 34.1167 44.2297 35.05C42.663 35.95 40.8964 36.4 38.9297 36.4C36.9297 36.4 35.1464 35.9667 33.5797 35.1C32.013 34.2 30.763 32.9833 29.8297 31.45C28.9297 29.8833 28.4797 28.1 28.4797 26.1ZM30.8297 26.15C30.8297 27.6833 31.1797 29.0833 31.8797 30.35C32.613 31.5833 33.5797 32.5667 34.7797 33.3C36.013 34.0333 37.3797 34.4 38.8797 34.4C40.3797 34.4 41.7297 34.0333 42.9297 33.3C44.163 32.5667 45.1297 31.5833 45.8297 30.35C46.563 29.0833 46.9297 27.6833 46.9297 26.15C46.9297 24.6167 46.563 23.2333 45.8297 22C45.1297 20.7333 44.163 19.7333 42.9297 19C41.7297 18.2333 40.3797 17.85 38.8797 17.85C37.3464 17.85 35.963 18.25 34.7297 19.05C33.5297 19.8167 32.5797 20.8333 31.8797 22.1C31.1797 23.3667 30.8297 24.7167 30.8297 26.15ZM62.4574 36.55C60.6241 36.55 59.1574 36.0167 58.0574 34.95C56.9574 33.85 56.3741 32.4333 56.3074 30.7V16.45H58.6574V30C58.7241 31.2667 59.1241 32.3167 59.8574 33.15C60.6241 33.9833 61.7574 34.4333 63.2574 34.5C64.5241 34.5 65.7074 34.1667 66.8074 33.5C67.9074 32.8333 68.7908 31.9333 69.4574 30.8C70.1574 29.6333 70.5074 28.3167 70.5074 26.85V16.45H72.8574V36H70.7574L70.5074 29.85L70.8574 31.2C70.5241 32.2 69.9241 33.1167 69.0574 33.95C68.2241 34.75 67.2241 35.3833 66.0574 35.85C64.9241 36.3167 63.7241 36.55 62.4574 36.55ZM83.7969 16.45L84.0469 22.45L83.7469 21.7C84.1802 20.5 84.8635 19.4667 85.7969 18.6C86.7302 17.7333 87.7635 17.0667 88.8969 16.6C90.0635 16.1333 91.1802 15.9 92.2469 15.9L92.1469 18.2C90.6469 18.2 89.2802 18.5333 88.0469 19.2C86.8469 19.8667 85.8802 20.7667 85.1469 21.9C84.4469 23 84.0969 24.25 84.0969 25.65V36H81.7469V16.45H83.7969ZM142.169 33.5C141.569 33.9 140.835 34.2833 139.969 34.65C139.135 34.9833 138.235 35.2833 137.269 35.55C136.302 35.8167 135.302 36.0167 134.269 36.15C133.269 36.3167 132.319 36.4 131.419 36.4C128.619 36.4 126.085 35.95 123.819 35.05C121.585 34.1167 119.669 32.85 118.069 31.25C116.469 29.6167 115.235 27.7333 114.369 25.6C113.535 23.4333 113.119 21.1 113.119 18.6C113.119 15.9 113.585 13.4167 114.519 11.15C115.485 8.88333 116.802 6.93333 118.469 5.3C120.135 3.63333 122.069 2.35 124.269 1.45C126.469 0.549997 128.802 0.0999973 131.269 0.0999973C133.135 0.0999973 134.885 0.333331 136.519 0.799997C138.185 1.26666 139.685 1.9 141.019 2.7L140.119 4.9C139.352 4.43333 138.485 4.03333 137.519 3.7C136.552 3.33333 135.552 3.05 134.519 2.85C133.519 2.65 132.519 2.55 131.519 2.55C129.252 2.55 127.152 2.95 125.219 3.75C123.285 4.55 121.602 5.66666 120.169 7.1C118.735 8.53333 117.619 10.2167 116.819 12.15C116.019 14.0833 115.619 16.1833 115.619 18.45C115.619 20.65 115.985 22.7 116.719 24.6C117.485 26.4667 118.552 28.1167 119.919 29.55C121.319 30.95 122.985 32.05 124.919 32.85C126.852 33.6167 129.002 34 131.369 34C132.769 34 134.235 33.8333 135.769 33.5C137.302 33.1667 138.619 32.6833 139.719 32.05V22.2H131.719V19.85H142.169V33.5ZM159.329 36.4C157.463 36.4 155.763 35.9833 154.229 35.15C152.729 34.2833 151.529 33.0833 150.629 31.55C149.763 30.0167 149.329 28.2333 149.329 26.2C149.329 24.0333 149.796 22.1833 150.729 20.65C151.663 19.0833 152.929 17.9 154.529 17.1C156.129 16.2667 157.946 15.85 159.979 15.85C161.713 15.85 163.346 16.3667 164.879 17.4C166.446 18.4333 167.563 19.7333 168.229 21.3L167.879 22L168.179 16.45H170.279V36H167.929V29.95L168.429 30.85C168.196 31.5167 167.796 32.1833 167.229 32.85C166.663 33.4833 165.963 34.0833 165.129 34.65C164.329 35.1833 163.429 35.6167 162.429 35.95C161.463 36.25 160.429 36.4 159.329 36.4ZM159.829 34.4C161.296 34.4 162.613 34.1 163.779 33.5C164.979 32.8667 165.946 32 166.679 30.9C167.413 29.8 167.829 28.5333 167.929 27.1V24.3C167.663 23.0667 167.129 21.9667 166.329 21C165.563 20.0333 164.613 19.2667 163.479 18.7C162.346 18.1333 161.113 17.85 159.779 17.85C158.313 17.85 156.963 18.2 155.729 18.9C154.496 19.5667 153.513 20.5167 152.779 21.75C152.046 22.9833 151.679 24.4333 151.679 26.1C151.679 27.6333 152.046 29.0333 152.779 30.3C153.513 31.5333 154.496 32.5333 155.729 33.3C156.996 34.0333 158.363 34.4 159.829 34.4ZM181.109 7.85H183.509V16.7H189.559V18.6H183.509V36H181.109V18.6H176.959V16.7H181.109V7.85ZM203.919 36.4C201.885 36.4 200.085 35.95 198.519 35.05C196.952 34.15 195.719 32.9333 194.819 31.4C193.952 29.8333 193.519 28.0833 193.519 26.15C193.519 24.25 193.985 22.5167 194.919 20.95C195.852 19.3833 197.102 18.1333 198.669 17.2C200.269 16.2667 202.035 15.8 203.969 15.8C206.302 15.8 208.252 16.4833 209.819 17.85C211.419 19.2167 212.569 21 213.269 23.2L196.169 29.8L195.469 28.1L211.119 22L210.619 22.7C210.052 21.3667 209.185 20.2167 208.019 19.25C206.885 18.2833 205.485 17.8 203.819 17.8C202.319 17.8 200.969 18.1667 199.769 18.9C198.569 19.6333 197.602 20.6167 196.869 21.85C196.169 23.0833 195.819 24.4833 195.819 26.05C195.819 27.5167 196.152 28.8833 196.819 30.15C197.519 31.4167 198.485 32.4333 199.719 33.2C200.952 33.9667 202.369 34.35 203.969 34.35C205.035 34.35 206.052 34.15 207.019 33.75C208.019 33.35 208.902 32.8333 209.669 32.2L210.869 33.9C209.935 34.6333 208.852 35.2333 207.619 35.7C206.419 36.1667 205.185 36.4 203.919 36.4ZM230.393 16.45L237.793 33.1L237.243 33.15L244.393 16.45H246.793L237.593 37.2L231.293 23.3L225.543 37.2L216.343 16.45H218.693L226.243 33.45L225.393 33.2L230.393 21.1L228.243 16.45H230.393ZM260.404 36.4C258.537 36.4 256.837 35.9833 255.304 35.15C253.804 34.2833 252.604 33.0833 251.704 31.55C250.837 30.0167 250.404 28.2333 250.404 26.2C250.404 24.0333 250.87 22.1833 251.804 20.65C252.737 19.0833 254.004 17.9 255.604 17.1C257.204 16.2667 259.02 15.85 261.054 15.85C262.787 15.85 264.42 16.3667 265.954 17.4C267.52 18.4333 268.637 19.7333 269.304 21.3L268.954 22L269.254 16.45H271.354V36H269.004V29.95L269.504 30.85C269.27 31.5167 268.87 32.1833 268.304 32.85C267.737 33.4833 267.037 34.0833 266.204 34.65C265.404 35.1833 264.504 35.6167 263.504 35.95C262.537 36.25 261.504 36.4 260.404 36.4ZM260.904 34.4C262.37 34.4 263.687 34.1 264.854 33.5C266.054 32.8667 267.02 32 267.754 30.9C268.487 29.8 268.904 28.5333 269.004 27.1V24.3C268.737 23.0667 268.204 21.9667 267.404 21C266.637 20.0333 265.687 19.2667 264.554 18.7C263.42 18.1333 262.187 17.85 260.854 17.85C259.387 17.85 258.037 18.2 256.804 18.9C255.57 19.5667 254.587 20.5167 253.854 21.75C253.12 22.9833 252.754 24.4333 252.754 26.1C252.754 27.6333 253.12 29.0333 253.854 30.3C254.587 31.5333 255.57 32.5333 256.804 33.3C258.07 34.0333 259.437 34.4 260.904 34.4ZM282.033 45.4L294.783 16.45H297.083L284.483 45.4H282.033ZM286.433 36.2L277.183 16.45H279.833L288.283 34.95L286.433 36.2ZM5.378 63.614H11.764V75.084H18.708V80.106H11.764V101H5.378V80.106H0.79V75.084H5.378V63.614ZM23.3711 87.732C23.3711 85.128 23.9911 82.7927 25.2311 80.726C26.4711 78.618 28.1864 76.9647 30.3771 75.766C32.5677 74.5673 35.0684 73.968 37.8791 73.968C40.7311 73.968 43.2317 74.5673 45.3811 75.766C47.5304 76.9647 49.1837 78.618 50.3411 80.726C51.5397 82.7927 52.1391 85.128 52.1391 87.732C52.1391 90.336 51.5397 92.692 50.3411 94.8C49.1837 96.908 47.5304 98.582 45.3811 99.822C43.2317 101.021 40.7104 101.62 37.8171 101.62C35.0477 101.62 32.5677 101.062 30.3771 99.946C28.2277 98.83 26.5124 97.2387 25.2311 95.172C23.9911 93.064 23.3711 90.584 23.3711 87.732ZM29.8191 87.794C29.8191 89.406 30.1704 90.8733 30.8731 92.196C31.5757 93.4773 32.5264 94.5107 33.7251 95.296C34.9237 96.04 36.2671 96.412 37.7551 96.412C39.2844 96.412 40.6484 96.04 41.8471 95.296C43.0457 94.5107 43.9757 93.4773 44.6371 92.196C45.3397 90.8733 45.6911 89.406 45.6911 87.794C45.6911 86.182 45.3397 84.7353 44.6371 83.454C43.9757 82.1727 43.0457 81.1393 41.8471 80.354C40.6484 79.5687 39.2844 79.176 37.7551 79.176C36.2257 79.176 34.8617 79.5687 33.6631 80.354C32.4644 81.1393 31.5137 82.1933 30.8111 83.516C30.1497 84.7973 29.8191 86.2233 29.8191 87.794ZM80.7342 55.988H110.308V62.374H87.3682V75.208H107.766V81.594H87.3682V94.614H111.176V101H80.7342V55.988ZM130.165 84.384L136.117 75.022H142.503L132.459 89.034L130.165 84.384ZM143.557 101H135.931L116.091 75.022H123.965L143.557 101ZM129.421 91.638L122.849 101H116.401L126.445 87.36L129.421 91.638ZM170.385 98.582C169.227 99.5327 167.822 100.277 166.169 100.814C164.557 101.351 162.924 101.62 161.271 101.62C158.419 101.62 155.897 101.062 153.707 99.946C151.557 98.83 149.883 97.2593 148.685 95.234C147.486 93.2087 146.887 90.7907 146.887 87.98C146.887 85.2107 147.527 82.8133 148.809 80.788C150.09 78.7213 151.785 77.1507 153.893 76.076C156.001 74.96 158.233 74.402 160.589 74.402C162.738 74.402 164.639 74.6913 166.293 75.27C167.946 75.8487 169.372 76.6547 170.571 77.688L167.409 81.842C166.706 81.2633 165.817 80.7467 164.743 80.292C163.709 79.8373 162.511 79.61 161.147 79.61C159.7 79.61 158.377 79.982 157.179 80.726C155.98 81.4287 155.029 82.4207 154.327 83.702C153.624 84.942 153.273 86.368 153.273 87.98C153.273 89.5093 153.624 90.9353 154.327 92.258C155.071 93.5393 156.083 94.552 157.365 95.296C158.646 96.04 160.113 96.412 161.767 96.412C162.841 96.412 163.833 96.2673 164.743 95.978C165.652 95.6473 166.458 95.1927 167.161 94.614L170.385 98.582ZM177.697 75.022H184.083V101H177.697V75.022ZM177.325 65.722C177.325 64.73 177.717 63.9033 178.503 63.242C179.288 62.5807 180.135 62.25 181.045 62.25C181.995 62.25 182.843 62.5807 183.587 63.242C184.331 63.9033 184.703 64.73 184.703 65.722C184.703 66.714 184.331 67.5407 183.587 68.202C182.843 68.822 181.995 69.132 181.045 69.132C180.135 69.132 179.288 68.822 178.503 68.202C177.717 67.5407 177.325 66.714 177.325 65.722ZM196.282 63.614H202.668V75.084H209.612V80.106H202.668V101H196.282V80.106H191.694V75.084H196.282V63.614ZM216.507 75.022H222.893V101H216.507V75.022ZM216.135 65.722C216.135 64.73 216.528 63.9033 217.313 63.242C218.099 62.5807 218.946 62.25 219.855 62.25C220.806 62.25 221.653 62.5807 222.397 63.242C223.141 63.9033 223.513 64.73 223.513 65.722C223.513 66.714 223.141 67.5407 222.397 68.202C221.653 68.822 220.806 69.132 219.855 69.132C218.946 69.132 218.099 68.822 217.313 68.202C216.528 67.5407 216.135 66.714 216.135 65.722ZM238.317 75.022L238.875 80.974L238.627 80.168C239.495 78.308 240.838 76.82 242.657 75.704C244.476 74.5467 246.625 73.968 249.105 73.968C251.544 73.968 253.548 74.6913 255.119 76.138C256.731 77.5847 257.558 79.4653 257.599 81.78V101H251.213V84.012C251.172 82.6893 250.779 81.6147 250.035 80.788C249.291 79.92 248.134 79.4653 246.563 79.424C245.158 79.424 243.876 79.858 242.719 80.726C241.562 81.5527 240.652 82.6893 239.991 84.136C239.33 85.5827 238.999 87.2567 238.999 89.158V101H232.613V75.022H238.317ZM280.077 113.896C278.051 113.896 276.295 113.669 274.807 113.214C273.319 112.759 271.975 112.119 270.777 111.292C269.619 110.507 268.503 109.659 267.429 108.75L271.211 104.348C272.492 105.547 273.815 106.497 275.179 107.2C276.543 107.944 278.134 108.316 279.953 108.316C281.771 108.316 283.321 108.006 284.603 107.386C285.925 106.807 286.938 105.981 287.641 104.906C288.343 103.831 288.695 102.55 288.695 101.062L288.757 94.304L289.191 95.544C288.488 97.2387 287.186 98.6853 285.285 99.884C283.383 101.041 281.048 101.62 278.279 101.62C275.923 101.62 273.732 101.021 271.707 99.822C269.723 98.6233 268.131 96.9907 266.933 94.924C265.734 92.8573 265.135 90.522 265.135 87.918C265.135 85.19 265.755 82.7927 266.995 80.726C268.276 78.618 269.95 76.9647 272.017 75.766C274.083 74.526 276.295 73.906 278.651 73.906C280.965 73.906 283.032 74.3607 284.851 75.27C286.669 76.138 288.033 77.2333 288.943 78.556L288.571 79.61L289.253 75.022H295.143V101.124C295.143 103.521 294.502 105.671 293.221 107.572C291.981 109.515 290.245 111.044 288.013 112.16C285.781 113.317 283.135 113.896 280.077 113.896ZM271.583 87.732C271.583 89.344 271.955 90.8113 272.699 92.134C273.443 93.4567 274.455 94.5107 275.737 95.296C277.059 96.04 278.527 96.412 280.139 96.412C281.585 96.412 282.887 96.164 284.045 95.668C285.202 95.1307 286.173 94.428 286.959 93.56C287.785 92.6507 288.385 91.5967 288.757 90.398V85.004C288.385 83.8053 287.785 82.7927 286.959 81.966C286.132 81.098 285.14 80.416 283.983 79.92C282.825 79.424 281.544 79.176 280.139 79.176C278.527 79.176 277.059 79.548 275.737 80.292C274.455 80.9947 273.443 81.9867 272.699 83.268C271.955 84.5493 271.583 86.0373 271.583 87.732ZM4.324 166V119.5H4.386L28.318 153.414L25.466 152.794L49.274 119.5H49.398V166H42.826V134.442L43.26 137.852L26.644 161.35H26.52L9.594 137.852L10.71 134.752V166H4.324ZM71.4492 166.62C69.0105 166.62 66.7992 166.124 64.8152 165.132C62.8312 164.099 61.2605 162.569 60.1032 160.544C58.9458 158.519 58.3672 156.018 58.3672 153.042C58.3672 150.107 58.9665 147.586 60.1652 145.478C61.4052 143.37 63.0172 141.758 65.0012 140.642C67.0265 139.485 69.2172 138.906 71.5732 138.906C74.0532 138.906 76.0785 139.443 77.6492 140.518C79.2612 141.551 80.5218 142.771 81.4312 144.176L80.9972 145.168L81.6172 140.022H87.5072V166H81.1212V159.49L81.8032 161.04C81.6378 161.371 81.2865 161.846 80.7492 162.466C80.2118 163.045 79.4885 163.665 78.5792 164.326C77.7112 164.987 76.6778 165.545 75.4792 166C74.3218 166.413 72.9785 166.62 71.4492 166.62ZM73.1852 161.412C74.5492 161.412 75.7685 161.164 76.8432 160.668C77.9178 160.172 78.8272 159.469 79.5712 158.56C80.3152 157.651 80.8318 156.576 81.1212 155.336V149.942C80.7905 148.785 80.2325 147.793 79.4472 146.966C78.6618 146.098 77.7112 145.416 76.5952 144.92C75.5205 144.424 74.3218 144.176 72.9992 144.176C71.5112 144.176 70.1472 144.548 68.9072 145.292C67.6672 145.995 66.6752 146.987 65.9312 148.268C65.1872 149.549 64.8152 151.037 64.8152 152.732C64.8152 154.344 65.1872 155.811 65.9312 157.134C66.7165 158.457 67.7498 159.511 69.0312 160.296C70.3125 161.04 71.6972 161.412 73.1852 161.412ZM102.995 140.022L103.615 147.462L103.305 146.47C104.007 144.899 104.999 143.556 106.281 142.44C107.562 141.324 108.885 140.477 110.249 139.898C111.654 139.278 112.832 138.968 113.783 138.968L113.473 145.292C111.489 145.168 109.753 145.54 108.265 146.408C106.818 147.276 105.681 148.433 104.855 149.88C104.028 151.327 103.615 152.877 103.615 154.53V166H97.2906V140.022H102.995ZM121.025 140.022H127.411V166H121.025V140.022ZM120.653 130.722C120.653 129.73 121.046 128.903 121.831 128.242C122.616 127.581 123.464 127.25 124.373 127.25C125.324 127.25 126.171 127.581 126.915 128.242C127.659 128.903 128.031 129.73 128.031 130.722C128.031 131.714 127.659 132.541 126.915 133.202C126.171 133.822 125.324 134.132 124.373 134.132C123.464 134.132 122.616 133.822 121.831 133.202C121.046 132.541 120.653 131.714 120.653 130.722ZM139.61 128.614H145.996V140.084H152.94V145.106H145.996V166H139.61V145.106H135.022V140.084H139.61V128.614ZM159.836 140.022H166.222V166H159.836V140.022ZM159.464 130.722C159.464 129.73 159.856 128.903 160.642 128.242C161.427 127.581 162.274 127.25 163.184 127.25C164.134 127.25 164.982 127.581 165.726 128.242C166.47 128.903 166.842 129.73 166.842 130.722C166.842 131.714 166.47 132.541 165.726 133.202C164.982 133.822 164.134 134.132 163.184 134.132C162.274 134.132 161.427 133.822 160.642 133.202C159.856 132.541 159.464 131.714 159.464 130.722ZM181.645 140.022L182.203 145.602L181.955 145.168C182.947 143.225 184.311 141.717 186.047 140.642C187.783 139.526 189.788 138.968 192.061 138.968C193.466 138.968 194.727 139.195 195.843 139.65C197 140.105 197.951 140.745 198.695 141.572C199.439 142.399 199.914 143.432 200.121 144.672L199.811 144.858C200.844 143.039 202.208 141.613 203.903 140.58C205.639 139.505 207.478 138.968 209.421 138.968C211.942 138.968 213.947 139.691 215.435 141.138C216.964 142.585 217.75 144.445 217.791 146.718V166H211.467V149.136C211.426 147.855 211.116 146.78 210.537 145.912C210 145.044 209.028 144.569 207.623 144.486C206.135 144.486 204.812 144.941 203.655 145.85C202.539 146.759 201.671 147.937 201.051 149.384C200.431 150.831 200.1 152.381 200.059 154.034V166H193.673V149.136C193.632 147.855 193.322 146.78 192.743 145.912C192.164 145.044 191.152 144.569 189.705 144.486C188.217 144.486 186.915 144.941 185.799 145.85C184.683 146.759 183.815 147.958 183.195 149.446C182.616 150.893 182.327 152.422 182.327 154.034V166H175.941V140.022H181.645ZM239.801 166.62C236.784 166.62 234.201 166.041 232.051 164.884C229.902 163.685 228.249 162.053 227.091 159.986C225.934 157.878 225.355 155.481 225.355 152.794C225.355 150.231 225.996 147.917 227.277 145.85C228.6 143.742 230.357 142.068 232.547 140.828C234.779 139.588 237.239 138.968 239.925 138.968C243.397 138.968 246.27 139.981 248.543 142.006C250.858 144.031 252.408 146.863 253.193 150.5L232.051 157.816L230.563 154.096L247.489 148.02L246.187 148.826C245.691 147.545 244.906 146.429 243.831 145.478C242.757 144.486 241.289 143.99 239.429 143.99C237.941 143.99 236.598 144.362 235.399 145.106C234.242 145.809 233.312 146.801 232.609 148.082C231.948 149.322 231.617 150.789 231.617 152.484C231.617 154.22 231.969 155.749 232.671 157.072C233.415 158.353 234.407 159.366 235.647 160.11C236.929 160.854 238.355 161.226 239.925 161.226C241.041 161.226 242.095 161.019 243.087 160.606C244.121 160.193 245.092 159.676 246.001 159.056L248.915 163.768C247.551 164.636 246.063 165.339 244.451 165.876C242.881 166.372 241.331 166.62 239.801 166.62ZM37.494 227.59C36.8327 228.045 35.8407 228.603 34.518 229.264C33.2367 229.884 31.7073 230.421 29.93 230.876C28.194 231.331 26.272 231.537 24.164 231.496C20.6507 231.455 17.4887 230.835 14.678 229.636C11.9087 228.437 9.55267 226.805 7.61 224.738C5.66733 222.63 4.15867 220.233 3.084 217.546C2.05067 214.818 1.534 211.925 1.534 208.866C1.534 205.477 2.07133 202.377 3.146 199.566C4.22067 196.714 5.75 194.234 7.734 192.126C9.75933 190.018 12.1153 188.385 14.802 187.228C17.53 186.071 20.506 185.492 23.73 185.492C26.4993 185.492 29 185.864 31.232 186.608C33.464 187.352 35.3447 188.22 36.874 189.212L34.27 195.412C33.0713 194.585 31.5833 193.8 29.806 193.056C28.07 192.271 26.1273 191.878 23.978 191.878C21.87 191.878 19.8653 192.312 17.964 193.18C16.104 194.007 14.4507 195.185 13.004 196.714C11.5987 198.202 10.4827 199.959 9.656 201.984C8.82933 203.968 8.416 206.138 8.416 208.494C8.416 210.891 8.788 213.103 9.532 215.128C10.276 217.153 11.33 218.91 12.694 220.398C14.0993 221.886 15.7733 223.043 17.716 223.87C19.6587 224.697 21.8493 225.11 24.288 225.11C26.6027 225.11 28.628 224.759 30.364 224.056C32.1413 223.353 33.588 222.547 34.704 221.638L37.494 227.59ZM56.8574 231.62C54.4187 231.62 52.2074 231.124 50.2234 230.132C48.2394 229.099 46.6687 227.569 45.5114 225.544C44.354 223.519 43.7754 221.018 43.7754 218.042C43.7754 215.107 44.3747 212.586 45.5734 210.478C46.8134 208.37 48.4254 206.758 50.4094 205.642C52.4347 204.485 54.6254 203.906 56.9814 203.906C59.4614 203.906 61.4867 204.443 63.0574 205.518C64.6694 206.551 65.93 207.771 66.8394 209.176L66.4054 210.168L67.0254 205.022H72.9154V231H66.5294V224.49L67.2114 226.04C67.046 226.371 66.6947 226.846 66.1574 227.466C65.62 228.045 64.8967 228.665 63.9874 229.326C63.1194 229.987 62.086 230.545 60.8874 231C59.73 231.413 58.3867 231.62 56.8574 231.62ZM58.5934 226.412C59.9574 226.412 61.1767 226.164 62.2514 225.668C63.326 225.172 64.2354 224.469 64.9794 223.56C65.7234 222.651 66.24 221.576 66.5294 220.336V214.942C66.1987 213.785 65.6407 212.793 64.8554 211.966C64.07 211.098 63.1194 210.416 62.0034 209.92C60.9287 209.424 59.73 209.176 58.4074 209.176C56.9194 209.176 55.5554 209.548 54.3154 210.292C53.0754 210.995 52.0834 211.987 51.3394 213.268C50.5954 214.549 50.2234 216.037 50.2234 217.732C50.2234 219.344 50.5954 220.811 51.3394 222.134C52.1247 223.457 53.158 224.511 54.4394 225.296C55.7207 226.04 57.1054 226.412 58.5934 226.412ZM88.4028 205.022L89.0228 212.462L88.7128 211.47C89.4154 209.899 90.4074 208.556 91.6888 207.44C92.9701 206.324 94.2928 205.477 95.6568 204.898C97.0621 204.278 98.2401 203.968 99.1908 203.968L98.8808 210.292C96.8968 210.168 95.1608 210.54 93.6728 211.408C92.2261 212.276 91.0894 213.433 90.2628 214.88C89.4361 216.327 89.0228 217.877 89.0228 219.53V231H82.6988V205.022H88.4028ZM117.557 231.62C114.54 231.62 111.957 231.041 109.807 229.884C107.658 228.685 106.005 227.053 104.847 224.986C103.69 222.878 103.111 220.481 103.111 217.794C103.111 215.231 103.752 212.917 105.033 210.85C106.356 208.742 108.113 207.068 110.303 205.828C112.535 204.588 114.995 203.968 117.681 203.968C121.153 203.968 124.026 204.981 126.299 207.006C128.614 209.031 130.164 211.863 130.949 215.5L109.807 222.816L108.319 219.096L125.245 213.02L123.943 213.826C123.447 212.545 122.662 211.429 121.587 210.478C120.513 209.486 119.045 208.99 117.185 208.99C115.697 208.99 114.354 209.362 113.155 210.106C111.998 210.809 111.068 211.801 110.365 213.082C109.704 214.322 109.373 215.789 109.373 217.484C109.373 219.22 109.725 220.749 110.427 222.072C111.171 223.353 112.163 224.366 113.403 225.11C114.685 225.854 116.111 226.226 117.681 226.226C118.797 226.226 119.851 226.019 120.843 225.606C121.877 225.193 122.848 224.676 123.757 224.056L126.671 228.768C125.307 229.636 123.819 230.339 122.207 230.876C120.637 231.372 119.087 231.62 117.557 231.62ZM150.253 231.62C147.235 231.62 144.652 231.041 142.503 229.884C140.353 228.685 138.7 227.053 137.543 224.986C136.385 222.878 135.807 220.481 135.807 217.794C135.807 215.231 136.447 212.917 137.729 210.85C139.051 208.742 140.808 207.068 142.999 205.828C145.231 204.588 147.69 203.968 150.377 203.968C153.849 203.968 156.721 204.981 158.995 207.006C161.309 209.031 162.859 211.863 163.645 215.5L142.503 222.816L141.015 219.096L157.941 213.02L156.639 213.826C156.143 212.545 155.357 211.429 154.283 210.478C153.208 209.486 151.741 208.99 149.881 208.99C148.393 208.99 147.049 209.362 145.851 210.106C144.693 210.809 143.763 211.801 143.061 213.082C142.399 214.322 142.069 215.789 142.069 217.484C142.069 219.22 142.42 220.749 143.123 222.072C143.867 223.353 144.859 224.366 146.099 225.11C147.38 225.854 148.806 226.226 150.377 226.226C151.493 226.226 152.547 226.019 153.539 225.606C154.572 225.193 155.543 224.676 156.453 224.056L159.367 228.768C158.003 229.636 156.515 230.339 154.903 230.876C153.332 231.372 151.782 231.62 150.253 231.62ZM176.438 205.022L177.058 212.462L176.748 211.47C177.451 209.899 178.443 208.556 179.724 207.44C181.005 206.324 182.328 205.477 183.692 204.898C185.097 204.278 186.275 203.968 187.226 203.968L186.916 210.292C184.932 210.168 183.196 210.54 181.708 211.408C180.261 212.276 179.125 213.433 178.298 214.88C177.471 216.327 177.058 217.877 177.058 219.53V231H170.734V205.022H176.438ZM202.032 231.558C200.131 231.558 198.292 231.227 196.514 230.566C194.737 229.863 193.27 228.851 192.112 227.528L194.84 223.932C195.956 224.965 197.072 225.751 198.188 226.288C199.346 226.784 200.441 227.032 201.474 227.032C202.301 227.032 203.045 226.949 203.706 226.784C204.368 226.577 204.905 226.247 205.318 225.792C205.732 225.337 205.938 224.738 205.938 223.994C205.938 223.126 205.649 222.444 205.07 221.948C204.492 221.452 203.748 221.039 202.838 220.708C201.929 220.377 200.958 220.067 199.924 219.778C197.734 219.075 196.08 218.083 194.964 216.802C193.848 215.479 193.29 213.929 193.29 212.152C193.29 210.788 193.621 209.507 194.282 208.308C194.985 207.068 196.039 206.055 197.444 205.27C198.85 204.485 200.586 204.092 202.652 204.092C204.554 204.092 206.228 204.319 207.674 204.774C209.121 205.187 210.464 205.911 211.704 206.944L209.224 210.788C208.48 210.044 207.592 209.486 206.558 209.114C205.566 208.701 204.657 208.473 203.83 208.432C203.086 208.432 202.404 208.556 201.784 208.804C201.164 209.011 200.668 209.341 200.296 209.796C199.924 210.209 199.738 210.705 199.738 211.284C199.697 212.111 199.966 212.793 200.544 213.33C201.164 213.826 201.95 214.239 202.9 214.57C203.851 214.859 204.781 215.169 205.69 215.5C206.972 215.872 208.108 216.389 209.1 217.05C210.092 217.67 210.878 218.435 211.456 219.344C212.035 220.253 212.324 221.411 212.324 222.816C212.324 224.345 211.952 225.792 211.208 227.156C210.464 228.479 209.328 229.553 207.798 230.38C206.269 231.165 204.347 231.558 202.032 231.558Z" fill="white"/>
</svg>
