<svg width="375" height="269" viewBox="0 0 375 269" fill="none" xmlns="http://www.w3.org/2000/svg">
<path d="M5.324 3.988H34.898V10.374H11.958V23.208H32.356V29.594H11.958V42.614H35.766V49H5.324V3.988ZM46.695 49V28.664H42.293V23.022H46.695V12.482C46.695 8.762 47.5836 5.88933 49.361 3.864C51.1383 1.83867 53.7216 0.825999 57.111 0.825999C58.0203 0.825999 59.033 0.970665 60.149 1.26C61.265 1.508 62.257 1.92133 63.125 2.5L60.459 7.15C60.087 6.73666 59.653 6.44733 59.157 6.282C58.7023 6.11667 58.227 6.034 57.731 6.034C56.2843 6.034 55.1476 6.53 54.321 7.522C53.4943 8.514 53.081 10.2087 53.081 12.606V23.022H61.265V28.664H53.081V49H46.695ZM65.853 49V28.664H61.451V23.022H65.853V12.482C65.853 8.762 66.7416 5.88933 68.519 3.864C70.2963 1.83867 72.8796 0.825999 76.269 0.825999C77.1783 0.825999 78.191 0.970665 79.307 1.26C80.423 1.508 81.415 1.92133 82.283 2.5L79.617 7.15C79.245 6.73666 78.811 6.44733 78.315 6.282C77.8603 6.11667 77.385 6.034 76.889 6.034C75.4423 6.034 74.3056 6.53 73.479 7.522C72.6523 8.514 72.239 10.2087 72.239 12.606V23.022H80.423V28.664H72.239V49H65.853ZM85.3418 35.732C85.3418 33.128 85.9618 30.7927 87.2018 28.726C88.4418 26.618 90.1571 24.9647 92.3478 23.766C94.5384 22.5673 97.0391 21.968 99.8498 21.968C102.702 21.968 105.202 22.5673 107.352 23.766C109.501 24.9647 111.154 26.618 112.312 28.726C113.51 30.7927 114.11 33.128 114.11 35.732C114.11 38.336 113.51 40.692 112.312 42.8C111.154 44.908 109.501 46.582 107.352 47.822C105.202 49.0207 102.681 49.62 99.7878 49.62C97.0184 49.62 94.5384 49.062 92.3478 47.946C90.1984 46.83 88.4831 45.2387 87.2018 43.172C85.9618 41.064 85.3418 38.584 85.3418 35.732ZM91.7898 35.794C91.7898 37.406 92.1411 38.8733 92.8438 40.196C93.5464 41.4773 94.4971 42.5107 95.6958 43.296C96.8944 44.04 98.2378 44.412 99.7258 44.412C101.255 44.412 102.619 44.04 103.818 43.296C105.016 42.5107 105.946 41.4773 106.608 40.196C107.31 38.8733 107.662 37.406 107.662 35.794C107.662 34.182 107.31 32.7353 106.608 31.454C105.946 30.1727 105.016 29.1393 103.818 28.354C102.619 27.5687 101.255 27.176 99.7258 27.176C98.1964 27.176 96.8324 27.5687 95.6338 28.354C94.4351 29.1393 93.4844 30.1933 92.7818 31.516C92.1204 32.7973 91.7898 34.2233 91.7898 35.794ZM127.366 23.022L127.986 30.462L127.676 29.47C128.378 27.8993 129.37 26.556 130.652 25.44C131.933 24.324 133.256 23.4767 134.62 22.898C136.025 22.278 137.203 21.968 138.154 21.968L137.844 28.292C135.86 28.168 134.124 28.54 132.636 29.408C131.189 30.276 130.052 31.4333 129.226 32.88C128.399 34.3267 127.986 35.8767 127.986 37.53V49H121.662V23.022H127.366ZM147.876 11.614H154.262V23.084H161.206V28.106H154.262V49H147.876V28.106H143.288V23.084H147.876V11.614ZM168.101 0.825999H174.487V49H168.101V0.825999ZM196.421 49.62C193.403 49.62 190.82 49.0413 188.671 47.884C186.521 46.6853 184.868 45.0527 183.711 42.986C182.553 40.878 181.975 38.4807 181.975 35.794C181.975 33.2313 182.615 30.9167 183.897 28.85C185.219 26.742 186.976 25.068 189.167 23.828C191.399 22.588 193.858 21.968 196.545 21.968C200.017 21.968 202.889 22.9807 205.163 25.006C207.477 27.0313 209.027 29.8627 209.813 33.5L188.671 40.816L187.183 37.096L204.109 31.02L202.807 31.826C202.311 30.5447 201.525 29.4287 200.451 28.478C199.376 27.486 197.909 26.99 196.049 26.99C194.561 26.99 193.217 27.362 192.019 28.106C190.861 28.8087 189.931 29.8007 189.229 31.082C188.567 32.322 188.237 33.7893 188.237 35.484C188.237 37.22 188.588 38.7493 189.291 40.072C190.035 41.3533 191.027 42.366 192.267 43.11C193.548 43.854 194.974 44.226 196.545 44.226C197.661 44.226 198.715 44.0193 199.707 43.606C200.74 43.1927 201.711 42.676 202.621 42.056L205.535 46.768C204.171 47.636 202.683 48.3387 201.071 48.876C199.5 49.372 197.95 49.62 196.421 49.62ZM224.466 49.558C222.565 49.558 220.725 49.2273 218.948 48.566C217.171 47.8633 215.703 46.8507 214.546 45.528L217.274 41.932C218.39 42.9653 219.506 43.7507 220.622 44.288C221.779 44.784 222.875 45.032 223.908 45.032C224.735 45.032 225.479 44.9493 226.14 44.784C226.801 44.5773 227.339 44.2467 227.752 43.792C228.165 43.3373 228.372 42.738 228.372 41.994C228.372 41.126 228.083 40.444 227.504 39.948C226.925 39.452 226.181 39.0387 225.272 38.708C224.363 38.3773 223.391 38.0673 222.358 37.778C220.167 37.0753 218.514 36.0833 217.398 34.802C216.282 33.4793 215.724 31.9293 215.724 30.152C215.724 28.788 216.055 27.5067 216.716 26.308C217.419 25.068 218.473 24.0553 219.878 23.27C221.283 22.4847 223.019 22.092 225.086 22.092C226.987 22.092 228.661 22.3193 230.108 22.774C231.555 23.1873 232.898 23.9107 234.138 24.944L231.658 28.788C230.914 28.044 230.025 27.486 228.992 27.114C228 26.7007 227.091 26.4733 226.264 26.432C225.52 26.432 224.838 26.556 224.218 26.804C223.598 27.0107 223.102 27.3413 222.73 27.796C222.358 28.2093 222.172 28.7053 222.172 29.284C222.131 30.1107 222.399 30.7927 222.978 31.33C223.598 31.826 224.383 32.2393 225.334 32.57C226.285 32.8593 227.215 33.1693 228.124 33.5C229.405 33.872 230.542 34.3887 231.534 35.05C232.526 35.67 233.311 36.4347 233.89 37.344C234.469 38.2533 234.758 39.4107 234.758 40.816C234.758 42.3453 234.386 43.792 233.642 45.156C232.898 46.4787 231.761 47.5533 230.232 48.38C228.703 49.1653 226.781 49.558 224.466 49.558ZM250.198 49.558C248.297 49.558 246.458 49.2273 244.68 48.566C242.903 47.8633 241.436 46.8507 240.278 45.528L243.006 41.932C244.122 42.9653 245.238 43.7507 246.354 44.288C247.512 44.784 248.607 45.032 249.64 45.032C250.467 45.032 251.211 44.9493 251.872 44.784C252.534 44.5773 253.071 44.2467 253.484 43.792C253.898 43.3373 254.104 42.738 254.104 41.994C254.104 41.126 253.815 40.444 253.236 39.948C252.658 39.452 251.914 39.0387 251.004 38.708C250.095 38.3773 249.124 38.0673 248.09 37.778C245.9 37.0753 244.246 36.0833 243.13 34.802C242.014 33.4793 241.456 31.9293 241.456 30.152C241.456 28.788 241.787 27.5067 242.448 26.308C243.151 25.068 244.205 24.0553 245.61 23.27C247.016 22.4847 248.752 22.092 250.818 22.092C252.72 22.092 254.394 22.3193 255.84 22.774C257.287 23.1873 258.63 23.9107 259.87 24.944L257.39 28.788C256.646 28.044 255.758 27.486 254.724 27.114C253.732 26.7007 252.823 26.4733 251.996 26.432C251.252 26.432 250.57 26.556 249.95 26.804C249.33 27.0107 248.834 27.3413 248.462 27.796C248.09 28.2093 247.904 28.7053 247.904 29.284C247.863 30.1107 248.132 30.7927 248.71 31.33C249.33 31.826 250.116 32.2393 251.066 32.57C252.017 32.8593 252.947 33.1693 253.856 33.5C255.138 33.872 256.274 34.3887 257.266 35.05C258.258 35.67 259.044 36.4347 259.622 37.344C260.201 38.2533 260.49 39.4107 260.49 40.816C260.49 42.3453 260.118 43.792 259.374 45.156C258.63 46.4787 257.494 47.5533 255.964 48.38C254.435 49.1653 252.513 49.558 250.198 49.558ZM299.947 40.568C299.947 44.2467 299.224 47.388 297.777 49.992C296.372 52.6373 294.429 54.642 291.949 56.006C289.469 57.4113 286.617 58.176 283.393 58.3V51.852C286.286 51.6867 288.663 50.6947 290.523 48.876C292.383 47.0573 293.313 44.226 293.313 40.382V3.988H299.947V40.568ZM308.941 35.732C308.941 33.128 309.561 30.7927 310.801 28.726C312.041 26.618 313.757 24.9647 315.947 23.766C318.138 22.5673 320.639 21.968 323.449 21.968C326.301 21.968 328.802 22.5673 330.951 23.766C333.101 24.9647 334.754 26.618 335.911 28.726C337.11 30.7927 337.709 33.128 337.709 35.732C337.709 38.336 337.11 40.692 335.911 42.8C334.754 44.908 333.101 46.582 330.951 47.822C328.802 49.0207 326.281 49.62 323.387 49.62C320.618 49.62 318.138 49.062 315.947 47.946C313.798 46.83 312.083 45.2387 310.801 43.172C309.561 41.064 308.941 38.584 308.941 35.732ZM315.389 35.794C315.389 37.406 315.741 38.8733 316.443 40.196C317.146 41.4773 318.097 42.5107 319.295 43.296C320.494 44.04 321.837 44.412 323.325 44.412C324.855 44.412 326.219 44.04 327.417 43.296C328.616 42.5107 329.546 41.4773 330.207 40.196C330.91 38.8733 331.261 37.406 331.261 35.794C331.261 34.182 330.91 32.7353 330.207 31.454C329.546 30.1727 328.616 29.1393 327.417 28.354C326.219 27.5687 324.855 27.176 323.325 27.176C321.796 27.176 320.432 27.5687 319.233 28.354C318.035 29.1393 317.084 30.1933 316.381 31.516C315.72 32.7973 315.389 34.2233 315.389 35.794ZM361.381 49.62C359.025 49.62 356.959 49.1447 355.181 48.194C353.445 47.202 352.04 45.962 350.965 44.474L351.647 42.676V49H345.261V0.825999H351.585V28.664L351.461 26.37C352.453 25.0473 353.9 23.9727 355.801 23.146C357.703 22.3193 359.831 21.906 362.187 21.906C364.502 21.906 366.61 22.464 368.511 23.58C370.454 24.696 371.983 26.2873 373.099 28.354C374.257 30.3793 374.835 32.7973 374.835 35.608C374.835 38.5013 374.215 41.002 372.975 43.11C371.735 45.218 370.082 46.83 368.015 47.946C365.99 49.062 363.779 49.62 361.381 49.62ZM360.017 44.226C361.588 44.226 362.993 43.854 364.233 43.11C365.515 42.366 366.527 41.3327 367.271 40.01C368.015 38.6873 368.387 37.1993 368.387 35.546C368.387 33.934 368.015 32.4873 367.271 31.206C366.527 29.9247 365.515 28.912 364.233 28.168C362.993 27.3827 361.588 26.99 360.017 26.99C358.653 26.99 357.393 27.238 356.235 27.734C355.078 28.23 354.107 28.912 353.321 29.78C352.536 30.648 351.978 31.6607 351.647 32.818V38.336C351.978 39.4933 352.536 40.5267 353.321 41.436C354.107 42.304 355.057 42.986 356.173 43.482C357.331 43.978 358.612 44.226 360.017 44.226ZM0.736 122L20.514 75.19H20.886L40.664 122H33.1L18.716 85.544L23.49 82.382L7.246 122H0.736ZM12.764 105.136H28.76L31.054 110.84H10.78L12.764 105.136ZM62.8721 122.62C60.9708 122.62 59.1521 122.207 57.4161 121.38C55.6801 120.512 54.2954 119.355 53.2621 117.908L53.6341 115.986V134.462H47.3101V95.588H52.8281L53.6961 101.912L53.0141 100.114C54.2954 98.626 55.8661 97.386 57.7261 96.394C59.6274 95.402 61.7354 94.906 64.0501 94.906C66.4888 94.906 68.6794 95.4847 70.6221 96.642C72.5648 97.7993 74.0941 99.432 75.2101 101.54C76.3261 103.648 76.8841 106.128 76.8841 108.98C76.8841 111.791 76.2641 114.229 75.0241 116.296C73.8254 118.321 72.1721 119.892 70.0641 121.008C67.9561 122.083 65.5588 122.62 62.8721 122.62ZM61.6321 117.598C63.2028 117.598 64.6494 117.226 65.9721 116.482C67.3361 115.738 68.4108 114.725 69.1961 113.444C70.0228 112.121 70.4361 110.654 70.4361 109.042C70.4361 107.347 70.0434 105.859 69.2581 104.578C68.5141 103.255 67.5014 102.222 66.2201 101.478C64.9801 100.734 63.5954 100.362 62.0661 100.362C60.6194 100.362 59.3381 100.631 58.2221 101.168C57.1061 101.664 56.1554 102.367 55.3701 103.276C54.5848 104.185 54.0268 105.281 53.6961 106.562V111.336C53.9441 112.535 54.4401 113.609 55.1841 114.56C55.9281 115.511 56.8581 116.255 57.9741 116.792C59.0901 117.329 60.3094 117.598 61.6321 117.598ZM99.9873 122.62C98.086 122.62 96.2673 122.207 94.5313 121.38C92.7953 120.512 91.4107 119.355 90.3773 117.908L90.7493 115.986V134.462H84.4253V95.588H89.9433L90.8113 101.912L90.1293 100.114C91.4107 98.626 92.9813 97.386 94.8413 96.394C96.7427 95.402 98.8507 94.906 101.165 94.906C103.604 94.906 105.795 95.4847 107.737 96.642C109.68 97.7993 111.209 99.432 112.325 101.54C113.441 103.648 113.999 106.128 113.999 108.98C113.999 111.791 113.379 114.229 112.139 116.296C110.941 118.321 109.287 119.892 107.179 121.008C105.071 122.083 102.674 122.62 99.9873 122.62ZM98.7473 117.598C100.318 117.598 101.765 117.226 103.087 116.482C104.451 115.738 105.526 114.725 106.311 113.444C107.138 112.121 107.551 110.654 107.551 109.042C107.551 107.347 107.159 105.859 106.373 104.578C105.629 103.255 104.617 102.222 103.335 101.478C102.095 100.734 100.711 100.362 99.1813 100.362C97.7347 100.362 96.4533 100.631 95.3373 101.168C94.2213 101.664 93.2707 102.367 92.4853 103.276C91.7 104.185 91.142 105.281 90.8113 106.562V111.336C91.0593 112.535 91.5553 113.609 92.2993 114.56C93.0433 115.511 93.9733 116.255 95.0893 116.792C96.2053 117.329 97.4247 117.598 98.7473 117.598ZM121.541 73.826H127.927V122H121.541V73.826ZM137.646 96.022H144.032V122H137.646V96.022ZM137.274 86.722C137.274 85.73 137.667 84.9033 138.452 84.242C139.237 83.5807 140.085 83.25 140.994 83.25C141.945 83.25 142.792 83.5807 143.536 84.242C144.28 84.9033 144.652 85.73 144.652 86.722C144.652 87.714 144.28 88.5407 143.536 89.202C142.792 89.822 141.945 90.132 140.994 90.132C140.085 90.132 139.237 89.822 138.452 89.202C137.667 88.5407 137.274 87.714 137.274 86.722ZM175.018 119.582C173.86 120.533 172.455 121.277 170.802 121.814C169.19 122.351 167.557 122.62 165.904 122.62C163.052 122.62 160.53 122.062 158.34 120.946C156.19 119.83 154.516 118.259 153.318 116.234C152.119 114.209 151.52 111.791 151.52 108.98C151.52 106.211 152.16 103.813 153.442 101.788C154.723 99.7213 156.418 98.1507 158.526 97.076C160.634 95.96 162.866 95.402 165.222 95.402C167.371 95.402 169.272 95.6913 170.926 96.27C172.579 96.8487 174.005 97.6547 175.204 98.688L172.042 102.842C171.339 102.263 170.45 101.747 169.376 101.292C168.342 100.837 167.144 100.61 165.78 100.61C164.333 100.61 163.01 100.982 161.812 101.726C160.613 102.429 159.662 103.421 158.96 104.702C158.257 105.942 157.906 107.368 157.906 108.98C157.906 110.509 158.257 111.935 158.96 113.258C159.704 114.539 160.716 115.552 161.998 116.296C163.279 117.04 164.746 117.412 166.4 117.412C167.474 117.412 168.466 117.267 169.376 116.978C170.285 116.647 171.091 116.193 171.794 115.614L175.018 119.582ZM193.18 122.62C190.741 122.62 188.53 122.124 186.546 121.132C184.562 120.099 182.991 118.569 181.834 116.544C180.676 114.519 180.098 112.018 180.098 109.042C180.098 106.107 180.697 103.586 181.896 101.478C183.136 99.37 184.748 97.758 186.732 96.642C188.757 95.4847 190.948 94.906 193.304 94.906C195.784 94.906 197.809 95.4433 199.38 96.518C200.992 97.5513 202.252 98.7707 203.162 100.176L202.728 101.168L203.348 96.022H209.238V122H202.852V115.49L203.534 117.04C203.368 117.371 203.017 117.846 202.48 118.466C201.942 119.045 201.219 119.665 200.31 120.326C199.442 120.987 198.408 121.545 197.21 122C196.052 122.413 194.709 122.62 193.18 122.62ZM194.916 117.412C196.28 117.412 197.499 117.164 198.574 116.668C199.648 116.172 200.558 115.469 201.302 114.56C202.046 113.651 202.562 112.576 202.852 111.336V105.942C202.521 104.785 201.963 103.793 201.178 102.966C200.392 102.098 199.442 101.416 198.326 100.92C197.251 100.424 196.052 100.176 194.73 100.176C193.242 100.176 191.878 100.548 190.638 101.292C189.398 101.995 188.406 102.987 187.662 104.268C186.918 105.549 186.546 107.037 186.546 108.732C186.546 110.344 186.918 111.811 187.662 113.134C188.447 114.457 189.48 115.511 190.762 116.296C192.043 117.04 193.428 117.412 194.916 117.412ZM221.501 84.614H227.887V96.084H234.831V101.106H227.887V122H221.501V101.106H216.913V96.084H221.501V84.614ZM241.726 96.022H248.112V122H241.726V96.022ZM241.354 86.722C241.354 85.73 241.747 84.9033 242.532 84.242C243.317 83.5807 244.165 83.25 245.074 83.25C246.025 83.25 246.872 83.5807 247.616 84.242C248.36 84.9033 248.732 85.73 248.732 86.722C248.732 87.714 248.36 88.5407 247.616 89.202C246.872 89.822 246.025 90.132 245.074 90.132C244.165 90.132 243.317 89.822 242.532 89.202C241.747 88.5407 241.354 87.714 241.354 86.722ZM255.6 108.732C255.6 106.128 256.22 103.793 257.46 101.726C258.7 99.618 260.415 97.9647 262.606 96.766C264.796 95.5673 267.297 94.968 270.108 94.968C272.96 94.968 275.46 95.5673 277.61 96.766C279.759 97.9647 281.412 99.618 282.57 101.726C283.768 103.793 284.368 106.128 284.368 108.732C284.368 111.336 283.768 113.692 282.57 115.8C281.412 117.908 279.759 119.582 277.61 120.822C275.46 122.021 272.939 122.62 270.046 122.62C267.276 122.62 264.796 122.062 262.606 120.946C260.456 119.83 258.741 118.239 257.46 116.172C256.22 114.064 255.6 111.584 255.6 108.732ZM262.048 108.794C262.048 110.406 262.399 111.873 263.102 113.196C263.804 114.477 264.755 115.511 265.954 116.296C267.152 117.04 268.496 117.412 269.984 117.412C271.513 117.412 272.877 117.04 274.076 116.296C275.274 115.511 276.204 114.477 276.866 113.196C277.568 111.873 277.92 110.406 277.92 108.794C277.92 107.182 277.568 105.735 276.866 104.454C276.204 103.173 275.274 102.139 274.076 101.354C272.877 100.569 271.513 100.176 269.984 100.176C268.454 100.176 267.09 100.569 265.892 101.354C264.693 102.139 263.742 103.193 263.04 104.516C262.378 105.797 262.048 107.223 262.048 108.794ZM297.623 96.022L298.181 101.974L297.933 101.168C298.801 99.308 300.145 97.82 301.963 96.704C303.782 95.5467 305.931 94.968 308.411 94.968C310.85 94.968 312.855 95.6913 314.425 97.138C316.037 98.5847 316.864 100.465 316.905 102.78V122H310.519V105.012C310.478 103.689 310.085 102.615 309.341 101.788C308.597 100.92 307.44 100.465 305.869 100.424C304.464 100.424 303.183 100.858 302.025 101.726C300.868 102.553 299.959 103.689 299.297 105.136C298.636 106.583 298.305 108.257 298.305 110.158V122H291.919V96.022H297.623ZM334.237 122.558C332.336 122.558 330.497 122.227 328.719 121.566C326.942 120.863 325.475 119.851 324.317 118.528L327.045 114.932C328.161 115.965 329.277 116.751 330.393 117.288C331.551 117.784 332.646 118.032 333.679 118.032C334.506 118.032 335.25 117.949 335.911 117.784C336.573 117.577 337.11 117.247 337.523 116.792C337.937 116.337 338.143 115.738 338.143 114.994C338.143 114.126 337.854 113.444 337.275 112.948C336.697 112.452 335.953 112.039 335.043 111.708C334.134 111.377 333.163 111.067 332.129 110.778C329.939 110.075 328.285 109.083 327.169 107.802C326.053 106.479 325.495 104.929 325.495 103.152C325.495 101.788 325.826 100.507 326.487 99.308C327.19 98.068 328.244 97.0553 329.649 96.27C331.055 95.4847 332.791 95.092 334.857 95.092C336.759 95.092 338.433 95.3193 339.879 95.774C341.326 96.1873 342.669 96.9107 343.909 97.944L341.429 101.788C340.685 101.044 339.797 100.486 338.763 100.114C337.771 99.7007 336.862 99.4733 336.035 99.432C335.291 99.432 334.609 99.556 333.989 99.804C333.369 100.011 332.873 100.341 332.501 100.796C332.129 101.209 331.943 101.705 331.943 102.284C331.902 103.111 332.171 103.793 332.749 104.33C333.369 104.826 334.155 105.239 335.105 105.57C336.056 105.859 336.986 106.169 337.895 106.5C339.177 106.872 340.313 107.389 341.305 108.05C342.297 108.67 343.083 109.435 343.661 110.344C344.24 111.253 344.529 112.411 344.529 113.816C344.529 115.345 344.157 116.792 343.413 118.156C342.669 119.479 341.533 120.553 340.003 121.38C338.474 122.165 336.552 122.558 334.237 122.558ZM356.008 117.6C355.274 119.367 354.541 121.117 353.808 122.85C353.108 124.583 352.391 126.333 351.658 128.1H347.508C348.174 126.333 348.824 124.583 349.458 122.85C350.091 121.117 350.741 119.367 351.408 117.6H356.008ZM4.65 195V159.5H13.4C16.8333 159.5 19.75 160.05 22.15 161.15C24.5833 162.217 26.55 163.633 28.05 165.4C29.55 167.167 30.65 169.1 31.35 171.2C32.05 173.3 32.4 175.383 32.4 177.45C32.4 180.15 31.9333 182.583 31 184.75C30.0667 186.883 28.7833 188.717 27.15 190.25C25.55 191.783 23.7167 192.967 21.65 193.8C19.5833 194.6 17.4 195 15.1 195H4.65ZM7.1 192.65H14.45C16.5833 192.65 18.5833 192.3 20.45 191.6C22.3167 190.9 23.95 189.883 25.35 188.55C26.7833 187.217 27.9 185.617 28.7 183.75C29.5 181.85 29.9 179.7 29.9 177.3C29.9 175.267 29.55 173.333 28.85 171.5C28.1833 169.633 27.1667 167.983 25.8 166.55C24.4333 165.117 22.75 163.983 20.75 163.15C18.75 162.317 16.4167 161.9 13.75 161.9H7.1V192.65ZM40.2664 175.45H42.6164V195H40.2664V175.45ZM39.7664 168.25C39.7664 167.783 39.9497 167.4 40.3164 167.1C40.6831 166.767 41.0831 166.6 41.5164 166.6C41.9831 166.6 42.3831 166.767 42.7164 167.1C43.0497 167.4 43.2164 167.783 43.2164 168.25C43.2164 168.75 43.0497 169.167 42.7164 169.5C42.3831 169.8 41.9831 169.95 41.5164 169.95C41.0831 169.95 40.6831 169.783 40.3164 169.45C39.9497 169.117 39.7664 168.717 39.7664 168.25ZM53.5469 175.45L53.7969 181.45L53.4969 180.7C53.9302 179.5 54.6135 178.467 55.5469 177.6C56.4802 176.733 57.5135 176.067 58.6469 175.6C59.8135 175.133 60.9302 174.9 61.9969 174.9L61.8969 177.2C60.3969 177.2 59.0302 177.533 57.7969 178.2C56.5969 178.867 55.6302 179.767 54.8969 180.9C54.1969 182 53.8469 183.25 53.8469 184.65V195H51.4969V175.45H53.5469ZM76.3055 195.4C74.2721 195.4 72.4721 194.95 70.9055 194.05C69.3388 193.15 68.1055 191.933 67.2055 190.4C66.3388 188.833 65.9055 187.083 65.9055 185.15C65.9055 183.25 66.3721 181.517 67.3055 179.95C68.2388 178.383 69.4888 177.133 71.0555 176.2C72.6555 175.267 74.4221 174.8 76.3555 174.8C78.6888 174.8 80.6388 175.483 82.2055 176.85C83.8055 178.217 84.9555 180 85.6555 182.2L68.5555 188.8L67.8555 187.1L83.5055 181L83.0055 181.7C82.4388 180.367 81.5721 179.217 80.4055 178.25C79.2721 177.283 77.8721 176.8 76.2055 176.8C74.7055 176.8 73.3555 177.167 72.1555 177.9C70.9555 178.633 69.9888 179.617 69.2555 180.85C68.5555 182.083 68.2055 183.483 68.2055 185.05C68.2055 186.517 68.5388 187.883 69.2055 189.15C69.9055 190.417 70.8721 191.433 72.1055 192.2C73.3388 192.967 74.7555 193.35 76.3555 193.35C77.4221 193.35 78.4388 193.15 79.4055 192.75C80.4055 192.35 81.2888 191.833 82.0555 191.2L83.2555 192.9C82.3221 193.633 81.2388 194.233 80.0055 194.7C78.8055 195.167 77.5721 195.4 76.3055 195.4ZM107.271 193.1C106.371 193.833 105.354 194.4 104.221 194.8C103.087 195.2 101.904 195.4 100.671 195.4C98.6707 195.4 96.8874 194.967 95.3207 194.1C93.754 193.2 92.5207 191.983 91.6207 190.45C90.7207 188.917 90.2707 187.167 90.2707 185.2C90.2707 183.233 90.7374 181.483 91.6707 179.95C92.604 178.417 93.8374 177.217 95.3707 176.35C96.9374 175.45 98.6374 175 100.471 175C101.837 175 103.104 175.2 104.271 175.6C105.437 176 106.454 176.567 107.321 177.3L106.071 178.9C105.371 178.333 104.554 177.867 103.621 177.5C102.687 177.133 101.687 176.95 100.621 176.95C99.154 176.95 97.804 177.317 96.5707 178.05C95.3707 178.783 94.404 179.783 93.6707 181.05C92.9707 182.283 92.6207 183.667 92.6207 185.2C92.6207 186.7 92.9707 188.083 93.6707 189.35C94.404 190.583 95.3874 191.567 96.6207 192.3C97.8874 193.033 99.2874 193.4 100.821 193.4C101.821 193.4 102.754 193.25 103.621 192.95C104.487 192.617 105.271 192.183 105.971 191.65L107.271 193.1ZM115.752 166.85H118.152V175.7H124.202V177.6H118.152V195H115.752V177.6H111.602V175.7H115.752V166.85ZM30.15 265.65C29.3833 266.117 28.5 266.567 27.5 267C26.5 267.433 25.4 267.767 24.2 268C23 268.267 21.7 268.4 20.3 268.4C17.6 268.4 15.15 267.933 12.95 267C10.75 266.033 8.86667 264.733 7.3 263.1C5.73333 261.433 4.51667 259.533 3.65 257.4C2.81667 255.233 2.4 252.933 2.4 250.5C2.4 247.9 2.85 245.483 3.75 243.25C4.65 241.017 5.91667 239.067 7.55 237.4C9.18333 235.733 11.0833 234.433 13.25 233.5C15.4167 232.567 17.7667 232.1 20.3 232.1C22.1667 232.1 23.9167 232.35 25.55 232.85C27.1833 233.35 28.6667 234 30 234.8L28.95 237.05C27.7833 236.317 26.4667 235.7 25 235.2C23.5333 234.7 21.9833 234.45 20.35 234.45C18.25 234.45 16.2667 234.867 14.4 235.7C12.5333 236.5 10.8833 237.633 9.45 239.1C8.05 240.533 6.95 242.217 6.15 244.15C5.35 246.083 4.95 248.167 4.95 250.4C4.95 252.533 5.3 254.55 6 256.45C6.73333 258.35 7.76667 260.017 9.1 261.45C10.4667 262.883 12.1 264.017 14 264.85C15.9 265.65 18.0167 266.05 20.35 266.05C22.0833 266.05 23.6667 265.817 25.1 265.35C26.5667 264.85 27.8667 264.233 29 263.5L30.15 265.65ZM36.1203 258.1C36.1203 256.2 36.5703 254.467 37.4703 252.9C38.4036 251.333 39.6536 250.1 41.2203 249.2C42.8203 248.267 44.6036 247.8 46.5703 247.8C48.5703 247.8 50.3536 248.267 51.9203 249.2C53.487 250.1 54.7203 251.333 55.6203 252.9C56.5203 254.467 56.9703 256.2 56.9703 258.1C56.9703 260 56.5203 261.733 55.6203 263.3C54.7203 264.867 53.4703 266.117 51.8703 267.05C50.3036 267.95 48.537 268.4 46.5703 268.4C44.5703 268.4 42.787 267.967 41.2203 267.1C39.6536 266.2 38.4036 264.983 37.4703 263.45C36.5703 261.883 36.1203 260.1 36.1203 258.1ZM38.4703 258.15C38.4703 259.683 38.8203 261.083 39.5203 262.35C40.2536 263.583 41.2203 264.567 42.4203 265.3C43.6536 266.033 45.0203 266.4 46.5203 266.4C48.0203 266.4 49.3703 266.033 50.5703 265.3C51.8036 264.567 52.7703 263.583 53.4703 262.35C54.2036 261.083 54.5703 259.683 54.5703 258.15C54.5703 256.617 54.2036 255.233 53.4703 254C52.7703 252.733 51.8036 251.733 50.5703 251C49.3703 250.233 48.0203 249.85 46.5203 249.85C44.987 249.85 43.6036 250.25 42.3703 251.05C41.1703 251.817 40.2203 252.833 39.5203 254.1C38.8203 255.367 38.4703 256.717 38.4703 258.15ZM65.998 248.45L66.248 253.9L65.898 253.4C66.5647 251.7 67.6647 250.367 69.198 249.4C70.7647 248.4 72.4647 247.9 74.298 247.9C75.398 247.9 76.3814 248.117 77.248 248.55C78.148 248.95 78.8647 249.517 79.398 250.25C79.9647 250.95 80.298 251.767 80.398 252.7L80.098 253C80.798 251.333 81.898 250.067 83.398 249.2C84.898 248.333 86.5147 247.9 88.248 247.9C90.1147 247.9 91.598 248.45 92.698 249.55C93.798 250.617 94.3647 252.017 94.398 253.75V268H92.048V254.25C92.0147 253.083 91.648 252.1 90.948 251.3C90.248 250.467 89.1814 250.017 87.748 249.95C86.448 249.95 85.248 250.283 84.148 250.95C83.048 251.617 82.148 252.5 81.448 253.6C80.7814 254.7 80.4147 255.933 80.348 257.3V268H77.998V254.25C77.9647 253.083 77.5814 252.1 76.848 251.3C76.148 250.467 75.0814 250.017 73.648 249.95C72.3147 249.95 71.0814 250.283 69.948 250.95C68.848 251.617 67.9647 252.533 67.298 253.7C66.6314 254.833 66.298 256.1 66.298 257.5V268H63.948V248.45H65.998ZM105.354 248.45L105.604 253.9L105.254 253.4C105.92 251.7 107.02 250.367 108.554 249.4C110.12 248.4 111.82 247.9 113.654 247.9C114.754 247.9 115.737 248.117 116.604 248.55C117.504 248.95 118.22 249.517 118.754 250.25C119.32 250.95 119.654 251.767 119.754 252.7L119.454 253C120.154 251.333 121.254 250.067 122.754 249.2C124.254 248.333 125.87 247.9 127.604 247.9C129.47 247.9 130.954 248.45 132.054 249.55C133.154 250.617 133.72 252.017 133.754 253.75V268H131.404V254.25C131.37 253.083 131.004 252.1 130.304 251.3C129.604 250.467 128.537 250.017 127.104 249.95C125.804 249.95 124.604 250.283 123.504 250.95C122.404 251.617 121.504 252.5 120.804 253.6C120.137 254.7 119.77 255.933 119.704 257.3V268H117.354V254.25C117.32 253.083 116.937 252.1 116.204 251.3C115.504 250.467 114.437 250.017 113.004 249.95C111.67 249.95 110.437 250.283 109.304 250.95C108.204 251.617 107.32 252.533 106.654 253.7C105.987 254.833 105.654 256.1 105.654 257.5V268H103.304V248.45H105.354ZM148.809 268.55C146.976 268.55 145.509 268.017 144.409 266.95C143.309 265.85 142.726 264.433 142.659 262.7V248.45H145.009V262C145.076 263.267 145.476 264.317 146.209 265.15C146.976 265.983 148.109 266.433 149.609 266.5C150.876 266.5 152.059 266.167 153.159 265.5C154.259 264.833 155.142 263.933 155.809 262.8C156.509 261.633 156.859 260.317 156.859 258.85V248.45H159.209V268H157.109L156.859 261.85L157.209 263.2C156.876 264.2 156.276 265.117 155.409 265.95C154.576 266.75 153.576 267.383 152.409 267.85C151.276 268.317 150.076 268.55 148.809 268.55ZM170.148 248.45L170.398 254.6L170.098 253.4C170.665 251.7 171.732 250.367 173.298 249.4C174.898 248.4 176.665 247.9 178.598 247.9C180.432 247.9 181.915 248.45 183.048 249.55C184.182 250.617 184.765 252.017 184.798 253.75V268H182.398V254.4C182.365 253.133 181.965 252.083 181.198 251.25C180.432 250.417 179.315 249.983 177.848 249.95C176.548 249.95 175.332 250.267 174.198 250.9C173.065 251.533 172.148 252.417 171.448 253.55C170.782 254.683 170.448 256 170.448 257.5V268H168.098V248.45H170.148ZM193.684 248.45H196.034V268H193.684V248.45ZM193.184 241.25C193.184 240.783 193.368 240.4 193.734 240.1C194.101 239.767 194.501 239.6 194.934 239.6C195.401 239.6 195.801 239.767 196.134 240.1C196.468 240.4 196.634 240.783 196.634 241.25C196.634 241.75 196.468 242.167 196.134 242.5C195.801 242.8 195.401 242.95 194.934 242.95C194.501 242.95 194.101 242.783 193.734 242.45C193.368 242.117 193.184 241.717 193.184 241.25ZM220.015 266.1C219.115 266.833 218.098 267.4 216.965 267.8C215.832 268.2 214.648 268.4 213.415 268.4C211.415 268.4 209.632 267.967 208.065 267.1C206.498 266.2 205.265 264.983 204.365 263.45C203.465 261.917 203.015 260.167 203.015 258.2C203.015 256.233 203.482 254.483 204.415 252.95C205.348 251.417 206.582 250.217 208.115 249.35C209.682 248.45 211.382 248 213.215 248C214.582 248 215.848 248.2 217.015 248.6C218.182 249 219.198 249.567 220.065 250.3L218.815 251.9C218.115 251.333 217.298 250.867 216.365 250.5C215.432 250.133 214.432 249.95 213.365 249.95C211.898 249.95 210.548 250.317 209.315 251.05C208.115 251.783 207.148 252.783 206.415 254.05C205.715 255.283 205.365 256.667 205.365 258.2C205.365 259.7 205.715 261.083 206.415 262.35C207.148 263.583 208.132 264.567 209.365 265.3C210.632 266.033 212.032 266.4 213.565 266.4C214.565 266.4 215.498 266.25 216.365 265.95C217.232 265.617 218.015 265.183 218.715 264.65L220.015 266.1ZM234.646 268.4C232.779 268.4 231.079 267.983 229.546 267.15C228.046 266.283 226.846 265.083 225.946 263.55C225.079 262.017 224.646 260.233 224.646 258.2C224.646 256.033 225.112 254.183 226.046 252.65C226.979 251.083 228.246 249.9 229.846 249.1C231.446 248.267 233.262 247.85 235.296 247.85C237.029 247.85 238.662 248.367 240.196 249.4C241.762 250.433 242.879 251.733 243.546 253.3L243.196 254L243.496 248.45H245.596V268H243.246V261.95L243.746 262.85C243.512 263.517 243.112 264.183 242.546 264.85C241.979 265.483 241.279 266.083 240.446 266.65C239.646 267.183 238.746 267.617 237.746 267.95C236.779 268.25 235.746 268.4 234.646 268.4ZM235.146 266.4C236.612 266.4 237.929 266.1 239.096 265.5C240.296 264.867 241.262 264 241.996 262.9C242.729 261.8 243.146 260.533 243.246 259.1V256.3C242.979 255.067 242.446 253.967 241.646 253C240.879 252.033 239.929 251.267 238.796 250.7C237.662 250.133 236.429 249.85 235.096 249.85C233.629 249.85 232.279 250.2 231.046 250.9C229.812 251.567 228.829 252.517 228.096 253.75C227.362 254.983 226.996 256.433 226.996 258.1C226.996 259.633 227.362 261.033 228.096 262.3C228.829 263.533 229.812 264.533 231.046 265.3C232.312 266.033 233.679 266.4 235.146 266.4ZM256.425 239.85H258.825V248.7H264.875V250.6H258.825V268H256.425V250.6H252.275V248.7H256.425V239.85ZM270.735 248.45H273.085V268H270.735V248.45ZM270.235 241.25C270.235 240.783 270.418 240.4 270.785 240.1C271.152 239.767 271.552 239.6 271.985 239.6C272.452 239.6 272.852 239.767 273.185 240.1C273.518 240.4 273.685 240.783 273.685 241.25C273.685 241.75 273.518 242.167 273.185 242.5C272.852 242.8 272.452 242.95 271.985 242.95C271.552 242.95 271.152 242.783 270.785 242.45C270.418 242.117 270.235 241.717 270.235 241.25ZM280.066 258.1C280.066 256.2 280.516 254.467 281.416 252.9C282.349 251.333 283.599 250.1 285.166 249.2C286.766 248.267 288.549 247.8 290.516 247.8C292.516 247.8 294.299 248.267 295.866 249.2C297.432 250.1 298.666 251.333 299.566 252.9C300.466 254.467 300.916 256.2 300.916 258.1C300.916 260 300.466 261.733 299.566 263.3C298.666 264.867 297.416 266.117 295.816 267.05C294.249 267.95 292.482 268.4 290.516 268.4C288.516 268.4 286.732 267.967 285.166 267.1C283.599 266.2 282.349 264.983 281.416 263.45C280.516 261.883 280.066 260.1 280.066 258.1ZM282.416 258.15C282.416 259.683 282.766 261.083 283.466 262.35C284.199 263.583 285.166 264.567 286.366 265.3C287.599 266.033 288.966 266.4 290.466 266.4C291.966 266.4 293.316 266.033 294.516 265.3C295.749 264.567 296.716 263.583 297.416 262.35C298.149 261.083 298.516 259.683 298.516 258.15C298.516 256.617 298.149 255.233 297.416 254C296.716 252.733 295.749 251.733 294.516 251C293.316 250.233 291.966 249.85 290.466 249.85C288.932 249.85 287.549 250.25 286.316 251.05C285.116 251.817 284.166 252.833 283.466 254.1C282.766 255.367 282.416 256.717 282.416 258.15ZM309.943 248.45L310.193 254.6L309.893 253.4C310.46 251.7 311.527 250.367 313.093 249.4C314.693 248.4 316.46 247.9 318.393 247.9C320.227 247.9 321.71 248.45 322.843 249.55C323.977 250.617 324.56 252.017 324.593 253.75V268H322.193V254.4C322.16 253.133 321.76 252.083 320.993 251.25C320.227 250.417 319.11 249.983 317.643 249.95C316.343 249.95 315.127 250.267 313.993 250.9C312.86 251.533 311.943 252.417 311.243 253.55C310.577 254.683 310.243 256 310.243 257.5V268H307.893V248.45H309.943Z" fill="white"/>
</svg>
