<svg width="119" height="119" viewBox="0 0 119 119" fill="none" xmlns="http://www.w3.org/2000/svg">
<circle cx="59.5" cy="59.5" r="59.5" fill="#2E8B80" fill-opacity="0.2"/>
<circle cx="59.5" cy="59.5" r="47.5" fill="#2E8B80" fill-opacity="0.3"/>
<circle cx="59.5" cy="59.5" r="35.5" fill="#2E8B80"/>
<path d="M53.6255 70.2811C53.8123 70.4707 54.0348 70.6213 54.2803 70.7241C54.5257 70.8268 54.7892 70.8798 55.0553 70.8798C55.3214 70.8798 55.5848 70.8268 55.8303 70.7241C56.0758 70.6213 56.2983 70.4707 56.485 70.2811L75.3477 51.3683C75.6974 50.9898 75.8881 50.4912 75.8801 49.9758C75.8722 49.4605 75.6663 48.968 75.3051 48.6004C74.9439 48.2327 74.4551 48.0181 73.94 48.0011C73.4249 47.9841 72.923 48.1659 72.5383 48.5088L55.0302 66.017L46.4517 57.4385C46.0725 57.0593 45.5582 56.8463 45.022 56.8463C44.4857 56.8463 43.9714 57.0593 43.5922 57.4385C43.213 57.8177 43 58.332 43 58.8682C43 59.1338 43.0523 59.3967 43.1539 59.642C43.2555 59.8873 43.4045 60.1102 43.5922 60.298L53.6255 70.2811Z" fill="white"/>
</svg>
