<svg width="24" height="21" viewBox="0 0 24 21" fill="none" xmlns="http://www.w3.org/2000/svg">
<path d="M20.5893 6.32723H20.2047V2.98385C20.2047 2.27433 19.8853 1.61529 19.3284 1.17569C18.7715 0.736107 18.0563 0.578554 17.3662 0.743278L4.92197 3.7145C3.63088 4.02275 2.46691 4.76633 1.6445 5.80824C0.822063 6.85015 0.369141 8.15497 0.369141 9.48237C0.369141 10.8098 0.822063 12.1146 1.6445 13.1565C2.46691 14.1984 3.63088 14.942 4.92197 15.2502L5.30178 15.3409V18.6185C5.30178 18.9436 5.51233 19.2312 5.8222 19.3295L10.9787 20.9651C11.0525 20.9885 11.1286 21 11.2042 21C11.3607 21 11.5154 20.9507 11.6448 20.856C11.8367 20.7155 11.9502 20.4919 11.9502 20.2541V16.9283L17.3662 18.2215C17.5455 18.2643 17.7264 18.2853 17.9059 18.2853C18.4172 18.2853 18.9162 18.1144 19.3284 17.789C19.8854 17.3494 20.2047 16.6904 20.2047 15.9809V12.8747H20.5893C22.3944 12.8747 23.863 11.4061 23.863 9.60095C23.863 7.79581 22.3944 6.32723 20.5893 6.32723ZM10.4583 19.2349L6.79367 18.0725V15.6971L10.4583 16.5721V19.2349ZM18.7128 15.9809C18.7128 16.2309 18.6003 16.4631 18.4041 16.618C18.2079 16.7729 17.9559 16.8284 17.7127 16.7704L5.26845 13.7991C3.26221 13.3201 1.86104 11.545 1.86104 9.48237C1.86104 7.41974 3.26221 5.64463 5.26845 5.1656L17.7127 2.19438C17.956 2.13631 18.2078 2.19187 18.4041 2.34674C18.6003 2.50163 18.7128 2.73385 18.7128 2.98385V15.9809ZM20.5893 11.3828H20.2047V7.81912H20.5893C21.5718 7.81912 22.3711 8.61845 22.3711 9.60095C22.3711 10.5834 21.5718 11.3828 20.5893 11.3828Z" fill="#FF7979"/>
</svg>
