<svg width="13" height="15" viewBox="0 0 13 15" fill="none" xmlns="http://www.w3.org/2000/svg">
<path d="M0 12.2402C0.00142118 12.7499 0.204526 13.2383 0.564936 13.5987C0.925346 13.9591 1.41376 14.1622 1.92345 14.1637H11.0175C11.5272 14.1622 12.0156 13.9591 12.3761 13.5987C12.7365 13.2383 12.9396 12.7499 12.941 12.2402V4.69257H0V12.2402ZM3.93923 8.20865C4.1924 8.0377 4.50301 7.97411 4.80299 8.0318C5.10297 8.08948 5.36784 8.26375 5.53955 8.5164L5.77806 8.86262L7.463 6.82376C7.65693 6.58717 7.93685 6.43726 8.24126 6.40696C8.54566 6.37666 8.84964 6.46846 9.0864 6.66219C9.32193 6.85682 9.47105 7.1366 9.50131 7.44063C9.53157 7.74467 9.44052 8.04835 9.24797 8.28558L6.90905 11.1246C6.76536 11.3 6.58457 11.4413 6.37968 11.5385C6.1748 11.6356 5.95093 11.6861 5.7242 11.6863H5.64726C5.40797 11.6761 5.17449 11.6094 4.96589 11.4918C4.75729 11.3741 4.57949 11.2087 4.44702 11.0092L3.63148 9.80896C3.54563 9.684 3.48545 9.54324 3.45445 9.39484C3.42344 9.24644 3.42221 9.09335 3.45084 8.94447C3.47947 8.7956 3.53739 8.65388 3.62123 8.52757C3.70507 8.40125 3.81316 8.29285 3.93923 8.20865ZM4.27007 9.37811C4.2408 9.33702 4.22014 9.29044 4.20931 9.24117C4.19848 9.1919 4.19772 9.14095 4.20706 9.09138C4.2164 9.0418 4.23565 8.99463 4.26367 8.95267C4.29168 8.91072 4.32788 8.87486 4.37009 8.84723C4.43259 8.8016 4.50813 8.77732 4.58551 8.77799C4.60886 8.77674 4.63226 8.77934 4.65476 8.78568C4.70513 8.79291 4.7533 8.81113 4.79585 8.83905C4.8384 8.86698 4.87428 8.90392 4.90096 8.94725L5.43183 9.72433C5.46477 9.7738 5.50936 9.81441 5.56168 9.84259C5.61401 9.87076 5.67246 9.88564 5.73189 9.8859C5.79157 9.88857 5.85107 9.87746 5.90577 9.85345C5.96047 9.82943 6.00891 9.79315 6.04734 9.74741L8.05542 7.30847C8.10339 7.24803 8.16842 7.2034 8.24208 7.1804C8.31573 7.15739 8.3946 7.15707 8.46844 7.17947C8.54228 7.20187 8.60768 7.24596 8.65614 7.30601C8.7046 7.36606 8.73388 7.4393 8.74017 7.5162C8.74785 7.61826 8.71773 7.71959 8.65554 7.80087L6.30893 10.6322C6.23451 10.7256 6.13906 10.8 6.03038 10.8495C5.92169 10.8989 5.80285 10.922 5.68356 10.9167C5.56427 10.9115 5.44791 10.8781 5.34399 10.8193C5.24007 10.7605 5.15153 10.6779 5.08561 10.5783L4.27007 9.37811ZM4.40856 1.21497H3.63917V0.761034C3.64076 0.659502 3.6818 0.562574 3.7536 0.490771C3.82541 0.418969 3.92233 0.377929 4.02387 0.376343C4.12589 0.376343 4.22374 0.416873 4.29588 0.489016C4.36803 0.56116 4.40856 0.659007 4.40856 0.761034V1.21497ZM12.941 3.13842V3.92319H0V3.13842C0.00142118 2.62873 0.204526 2.14032 0.564936 1.77991C0.925346 1.4195 1.41376 1.21639 1.92345 1.21497H3.63917V2.43829C3.63917 2.54031 3.6797 2.63816 3.75185 2.7103C3.82399 2.78245 3.92184 2.82298 4.02387 2.82298C4.12589 2.82298 4.22374 2.78245 4.29588 2.7103C4.36803 2.63816 4.40856 2.54031 4.40856 2.43829V1.21497H8.53244V2.43829C8.53244 2.54031 8.57297 2.63816 8.64511 2.7103C8.71726 2.78245 8.81511 2.82298 8.91713 2.82298C9.01916 2.82298 9.11701 2.78245 9.18915 2.7103C9.26129 2.63816 9.30182 2.54031 9.30182 2.43829V1.21497H11.0175C11.5272 1.21639 12.0156 1.4195 12.3761 1.77991C12.7365 2.14032 12.9396 2.62873 12.941 3.13842ZM9.30182 1.21497H8.53244V0.761034C8.53244 0.659007 8.57297 0.56116 8.64511 0.489016C8.71726 0.416873 8.81511 0.376343 8.91713 0.376343C9.01866 0.377929 9.11559 0.418969 9.18739 0.490771C9.2592 0.562574 9.30024 0.659502 9.30182 0.761034V1.21497Z" fill="white"/>
</svg>
