<svg width="16" height="17" viewBox="0 0 16 17" fill="none" xmlns="http://www.w3.org/2000/svg">
<path d="M13.9486 5.94031H12.5127V12.5044H13.9486V5.94031Z" fill="white"/>
<path d="M9.76402 5.94031H8.32812V12.5044H9.76402V5.94031Z" fill="white"/>
<path d="M11.8568 5.94031H10.4209V12.5044H11.8568V5.94031Z" fill="white"/>
<path d="M3.49071 5.2839H14.5918L8 0L1.4082 5.2839H3.49071Z" fill="white"/>
<path d="M3.48766 5.94031H2.05176V12.5044H3.48766V5.94031Z" fill="white"/>
<path d="M15.0385 15.2121H0.961518H0.305108H0V16.566H16V15.2121H15.6949H15.0385Z" fill="white"/>
<path d="M7.67223 5.94031H6.23633V12.5044H7.67223V5.94031Z" fill="white"/>
<path d="M15.0562 13.1608H14.5996H13.9432H12.5091H11.8527H10.4185H9.76211H8.32797H7.67156H6.23743H5.58102H4.14689H3.49048H2.05634H1.39993H0.943359V14.5557H15.0562V13.1608Z" fill="white"/>
<path d="M5.57945 5.94031H4.14355V12.5044H5.57945V5.94031Z" fill="white"/>
</svg>
