<svg width="22" height="20" viewBox="0 0 22 20" fill="none" xmlns="http://www.w3.org/2000/svg">
<path d="M20.1869 4.74609C20.1869 4.92341 20.1869 5.10074 20.1869 5.28042C20.1869 5.75564 20.1869 6.23087 20.1869 6.70373C20.1869 7.37755 20.1869 8.05137 20.1869 8.7252C20.1869 9.50778 20.1869 10.2904 20.1869 11.0729C20.1869 11.8721 20.1869 12.6688 20.1869 13.468C20.1869 14.1938 20.1869 14.9173 20.1869 15.6431C20.1869 16.194 20.1869 16.7449 20.1869 17.2958C20.1869 17.5842 20.1869 17.8727 20.1869 18.1611C20.1869 18.1824 20.1869 18.2013 20.1869 18.2226C20.1869 18.2249 20.1869 18.2249 20.1869 18.2273C20.1869 18.2438 20.1846 18.2604 20.1846 18.2769C20.1893 18.3455 20.2106 18.1516 20.194 18.2178C20.1869 18.2486 20.1798 18.2793 20.1704 18.31C20.1657 18.3242 20.1562 18.3408 20.1562 18.355C20.1562 18.355 20.2153 18.2391 20.1846 18.2864C20.168 18.3124 20.1538 18.3408 20.1396 18.3692C20.1278 18.3904 20.0829 18.4472 20.142 18.3739C20.2011 18.2982 20.1538 18.3597 20.1373 18.3739C20.116 18.3952 20.09 18.4164 20.0711 18.4377C20.0356 18.4779 20.1278 18.3952 20.1302 18.3928C20.1184 18.3952 20.1018 18.4117 20.0924 18.4188C20.0664 18.433 20.0356 18.4472 20.0096 18.4637C19.9623 18.4945 20.0782 18.4354 20.0782 18.4354C20.0593 18.4377 20.038 18.4495 20.0167 18.4543C19.986 18.4637 19.9529 18.4661 19.9221 18.4755C19.934 18.4708 20.0758 18.4661 19.9812 18.4637H19.9481H19.9458C19.9316 18.4637 19.9198 18.4637 19.9056 18.4637C19.6952 18.4637 19.4824 18.4637 19.2719 18.4637C18.8416 18.4637 18.409 18.4637 17.9787 18.4637C17.3805 18.4637 16.7847 18.4637 16.1865 18.4637C15.4702 18.4637 14.7561 18.4637 14.0398 18.4637C13.2501 18.4637 12.4628 18.4637 11.6731 18.4637C10.8669 18.4637 10.063 18.4637 9.2568 18.4637C8.48131 18.4637 7.70346 18.4637 6.92797 18.4637C6.2305 18.4637 5.53067 18.4637 4.83321 18.4637C4.26105 18.4637 3.69125 18.4637 3.11909 18.4637C2.72189 18.4637 2.32706 18.4637 1.92985 18.4637C1.76199 18.4637 1.59176 18.4661 1.4239 18.4637C1.42153 18.4637 1.41917 18.4637 1.41444 18.4637C1.39789 18.4637 1.38134 18.4614 1.36479 18.4614C1.30568 18.4637 1.44281 18.4732 1.44045 18.4732C1.42626 18.4685 1.40735 18.4685 1.39316 18.4637C1.36242 18.4566 1.33169 18.4448 1.30095 18.4377C1.24421 18.4235 1.36952 18.4685 1.36952 18.4685C1.35533 18.4566 1.32932 18.4495 1.31277 18.4401C1.28677 18.4259 1.26076 18.3999 1.23475 18.3904C1.32696 18.4212 1.32223 18.4661 1.28204 18.4235C1.27022 18.4117 1.2584 18.4023 1.24894 18.3904C1.23239 18.3739 1.16146 18.2888 1.22293 18.3692C1.2844 18.4495 1.21347 18.3479 1.19929 18.3242C1.1922 18.31 1.1851 18.2959 1.17801 18.2817C1.14727 18.2344 1.20638 18.3502 1.20638 18.3502C1.20165 18.3195 1.1851 18.2888 1.17801 18.258C1.17328 18.2415 1.17328 18.2273 1.16855 18.2107C1.15437 18.154 1.17801 18.2888 1.17801 18.2864C1.18274 18.2746 1.17565 18.2297 1.17565 18.2202C1.17565 18.1706 1.17565 18.1209 1.17565 18.0712C1.17565 17.7284 1.17565 17.3832 1.17565 17.0404C1.17565 16.4517 1.17565 15.863 1.17565 15.2743C1.17565 14.5319 1.17565 13.7919 1.17565 13.0495C1.17565 12.248 1.17565 11.4441 1.17565 10.6426C1.17565 9.87188 1.17565 9.10112 1.17565 8.33272C1.17565 7.68491 1.17565 7.03709 1.17565 6.38691C1.17565 5.95897 1.17565 5.5334 1.17565 5.10546C1.17565 5.00143 1.17565 4.89977 1.17565 4.79574C1.17565 4.77683 1.17565 4.75791 1.17565 4.74136V4.739C1.17565 4.72245 1.17801 4.7059 1.17801 4.68935C1.17564 4.63024 1.16619 4.76737 1.16619 4.765C1.17328 4.74136 1.17564 4.71063 1.18274 4.68698C1.18983 4.66098 1.23002 4.55931 1.18983 4.65388C1.14964 4.74846 1.19692 4.64679 1.20875 4.62551C1.22057 4.60423 1.28677 4.51439 1.22293 4.59478C1.1591 4.67516 1.23948 4.58059 1.2584 4.56168C1.27022 4.55222 1.28204 4.54276 1.29386 4.53094C1.32932 4.49075 1.23712 4.5735 1.23475 4.57586C1.26312 4.56877 1.30332 4.5333 1.32696 4.51912C1.33878 4.51203 1.3577 4.5073 1.36952 4.49784C1.36952 4.49784 1.24657 4.5404 1.30095 4.52858C1.33642 4.51912 1.37188 4.5073 1.40735 4.5002C1.50428 4.47656 1.27731 4.50257 1.37897 4.50493C1.38607 4.50493 1.40498 4.50493 1.41207 4.50493H1.41444C1.42862 4.50493 1.44281 4.50493 1.457 4.50493C1.53502 4.50493 1.61304 4.50493 1.6887 4.50493C2.0197 4.50493 2.35306 4.50493 2.68406 4.50493C3.20657 4.50493 3.72908 4.50493 4.25159 4.50493C4.91596 4.50493 5.58032 4.50493 6.24469 4.50493C7.00126 4.50493 7.7602 4.50493 8.51678 4.50493C9.323 4.50493 10.1269 4.50493 10.9331 4.50493C11.7299 4.50493 12.5266 4.50493 13.3234 4.50493C14.0658 4.50493 14.8082 4.50493 15.5505 4.50493C16.1889 4.50493 16.8273 4.50493 17.4656 4.50493C17.9527 4.50493 18.4421 4.50493 18.9291 4.50493C19.2128 4.50493 19.4966 4.50493 19.7803 4.50493C19.8299 4.50493 19.8796 4.50493 19.9292 4.50493C19.9316 4.50493 19.934 4.50493 19.9387 4.50493C19.9434 4.50493 19.9481 4.50493 19.9552 4.50493C19.9694 4.50493 19.9907 4.50966 20.0049 4.5073C20.0072 4.5073 19.8701 4.48129 19.9292 4.49784C19.9647 4.5073 20.0025 4.51675 20.038 4.52385C20.1326 4.54513 19.9316 4.46238 20.012 4.51203C20.038 4.52858 20.0664 4.54513 20.0924 4.55931C20.1751 4.6066 20.0049 4.4742 20.0711 4.54276C20.0924 4.56404 20.1136 4.58768 20.1373 4.60896C20.2058 4.67516 20.0734 4.50493 20.1207 4.58768C20.1373 4.61842 20.1562 4.65388 20.1751 4.68225C20.2058 4.72954 20.1467 4.61369 20.1467 4.61369C20.1491 4.62788 20.1586 4.64443 20.1609 4.65861C20.1704 4.68935 20.1751 4.72008 20.1846 4.75082C20.1988 4.80756 20.1751 4.6728 20.1751 4.67516C20.1798 4.69171 20.1869 4.739 20.1869 4.74609C20.194 5.05581 20.4541 5.35135 20.778 5.33716C21.0925 5.32298 21.3762 5.07709 21.3691 4.74609C21.3525 3.96587 20.7307 3.33934 19.9481 3.32751C19.9056 3.32751 19.8654 3.32751 19.8228 3.32751C19.5509 3.32751 19.279 3.32751 19.0071 3.32751C18.5248 3.32751 18.0402 3.32751 17.5578 3.32751C16.9195 3.32751 16.2788 3.32751 15.6404 3.32751C14.8909 3.32751 14.1391 3.32751 13.3896 3.32751C12.581 3.32751 11.7748 3.32751 10.9662 3.32751C10.1576 3.32751 9.34664 3.32751 8.53806 3.32751C7.76966 3.32751 7.00126 3.32751 6.23287 3.32751C5.56377 3.32751 4.89468 3.32751 4.22558 3.32751C3.70071 3.32751 3.17584 3.32751 2.65096 3.32751C2.32469 3.32751 1.99842 3.32751 1.67215 3.32751C1.59885 3.32751 1.52792 3.32751 1.45463 3.32751C1.07398 3.32988 0.719336 3.46228 0.44035 3.72235C0.144813 3.99661 0.00295534 4.39145 0.000591046 4.78628C0.000591046 4.88086 0.000591046 4.97779 0.000591046 5.07236C0.000591046 5.49084 0.000591046 5.91169 0.000591046 6.33017C0.000591046 6.97798 0.000591046 7.62816 0.000591046 8.27598C0.000591046 9.0562 0.000591046 9.83405 0.000591046 10.6143C0.000591046 11.4252 0.000591046 12.2338 0.000591046 13.0448C0.000591046 13.7966 0.000591046 14.5485 0.000591046 15.3003C0.000591046 15.8914 0.000591046 16.4824 0.000591046 17.0735C0.000591046 17.414 0.000591046 17.7521 0.000591046 18.0925C0.000591046 18.1587 -0.00177319 18.2249 0.00295539 18.2911C0.0573341 19.0453 0.660229 19.6317 1.42153 19.6435C1.57521 19.6459 1.72653 19.6435 1.8802 19.6435C2.26795 19.6435 2.65569 19.6435 3.0458 19.6435C3.6156 19.6435 4.18303 19.6435 4.75282 19.6435C5.45738 19.6435 6.16194 19.6435 6.8665 19.6435C7.64908 19.6435 8.43166 19.6435 9.21424 19.6435C10.0323 19.6435 10.848 19.6435 11.666 19.6435C12.4628 19.6435 13.2595 19.6435 14.0563 19.6435C14.7774 19.6435 15.4985 19.6435 16.222 19.6435C16.8249 19.6435 17.4278 19.6435 18.0283 19.6435C18.4563 19.6435 18.8818 19.6435 19.3098 19.6435C19.5131 19.6435 19.7188 19.6435 19.9221 19.6435C20.3146 19.6411 20.7071 19.4946 20.9766 19.2037C21.2414 18.92 21.3714 18.563 21.3714 18.1776C21.3714 17.901 21.3714 17.6244 21.3714 17.3501C21.3714 16.7993 21.3714 16.2484 21.3714 15.6975C21.3714 14.9717 21.3714 14.2482 21.3714 13.5223C21.3714 12.7138 21.3714 11.9028 21.3714 11.0942C21.3714 10.2998 21.3714 9.50541 21.3714 8.71101C21.3714 8.03246 21.3714 7.35391 21.3714 6.67299C21.3714 6.19777 21.3714 5.72491 21.3714 5.24969C21.3714 5.07946 21.3714 4.90923 21.3714 4.74136C21.3714 4.43164 21.0995 4.1361 20.7804 4.15029C20.4565 4.17157 20.1869 4.41509 20.1869 4.74609Z" fill="white"/>
<path d="M11.8831 8.27833C11.8831 8.63534 11.8831 8.99471 11.8831 9.35172C11.8831 9.7702 11.8665 10.1934 11.8831 10.6119C11.8831 10.619 11.8807 10.6284 11.8831 10.6355C11.8523 10.4558 12.0793 10.2454 12.2495 10.2691C12.2212 10.2643 12.1904 10.2691 12.162 10.2691C11.9942 10.2691 11.824 10.2691 11.6561 10.2691C11.1289 10.2691 10.6016 10.2691 10.0744 10.2691C9.85686 10.2691 9.63698 10.2691 9.41947 10.2691C9.3249 10.2691 9.21614 10.2549 9.12157 10.2691C9.2918 10.2454 9.51877 10.4558 9.48803 10.6355C9.4904 10.6284 9.48803 10.619 9.48803 10.6119C9.4904 10.5551 9.48803 10.4984 9.48803 10.4417C9.48803 10.2147 9.48803 9.98771 9.48803 9.76074C9.48803 9.29734 9.48803 8.83394 9.48803 8.37054C9.48803 8.36581 9.48803 8.27596 9.48803 8.27596C9.50931 8.27596 9.42893 8.47693 9.43838 8.46038C9.40765 8.51239 9.358 8.56204 9.30598 8.59278C9.31071 8.59041 9.13103 8.66607 9.12157 8.64243C9.12157 8.64479 9.14758 8.64243 9.14994 8.64243C9.28707 8.64952 9.4242 8.64243 9.56133 8.64243C10.072 8.64243 10.5827 8.64243 11.0934 8.64243C11.4669 8.64243 11.8452 8.65898 12.2188 8.64243C12.2235 8.64243 12.2448 8.64479 12.2472 8.64243C12.2495 8.64006 12.155 8.63061 12.1526 8.62824C11.9871 8.59514 11.8925 8.43674 11.8831 8.27833C11.9043 8.58569 12.1408 8.88359 12.4741 8.8694C12.7768 8.85522 13.0865 8.60933 13.0652 8.27833C13.0345 7.82675 12.7153 7.47683 12.2495 7.46265C12.2212 7.46265 12.1904 7.46265 12.162 7.46265C11.9847 7.46265 11.805 7.46265 11.6277 7.46265C11.0627 7.46265 10.5 7.46265 9.93488 7.46265C9.7221 7.46265 9.51168 7.46265 9.29889 7.46265C9.027 7.46265 8.76692 7.48629 8.55414 7.69198C8.32007 7.91659 8.30589 8.19794 8.30589 8.49348C8.30589 8.74409 8.30589 8.99471 8.30589 9.24532C8.30589 9.70163 8.29879 10.1556 8.30589 10.6119C8.31534 11.0871 8.66999 11.4418 9.14521 11.4512C9.28943 11.4536 9.43366 11.4512 9.57788 11.4512C10.1288 11.4512 10.6773 11.4512 11.2282 11.4512C11.5686 11.4512 11.9091 11.4654 12.2495 11.4512C12.7035 11.4347 13.0463 11.0895 13.0652 10.6355C13.0676 10.6001 13.0652 10.567 13.0652 10.5315C13.0652 10.3187 13.0652 10.1059 13.0652 9.8955C13.0652 9.38955 13.0652 8.88359 13.0652 8.37763C13.0652 8.34453 13.0652 8.31143 13.0652 8.27833C13.0652 7.96861 12.7933 7.67307 12.4741 7.68725C12.1526 7.70144 11.8831 7.94733 11.8831 8.27833Z" fill="white"/>
<path d="M20.187 4.6728C20.187 4.98016 20.187 5.28988 20.187 5.59724C20.187 5.92114 20.2012 6.24742 20.1823 6.57132C20.1799 6.60915 20.1775 6.64698 20.1728 6.68481C20.1704 6.70609 20.1681 6.72737 20.1657 6.74865C20.161 6.81485 20.1775 6.66353 20.1775 6.67299C20.1586 6.75101 20.1515 6.8314 20.1326 6.91178C20.0971 7.0631 20.0498 7.20732 19.9955 7.35154C19.96 7.44375 20.0593 7.21678 20.0002 7.33972C19.9836 7.37282 19.9695 7.40592 19.9529 7.43902C19.9174 7.50995 19.8796 7.57851 19.8394 7.64471C19.804 7.70146 19.7685 7.7582 19.7283 7.81494C19.7047 7.84804 19.6787 7.88114 19.655 7.91661C19.6503 7.92134 19.7425 7.81258 19.6999 7.8575C19.6834 7.87642 19.6668 7.89769 19.6503 7.91661C19.5557 8.02773 19.454 8.13176 19.3453 8.22633C19.3169 8.24997 19.2909 8.27362 19.2625 8.29726C19.1585 8.38474 19.3524 8.23342 19.272 8.29017C19.2082 8.33509 19.1443 8.38001 19.0805 8.42257C18.9505 8.50532 18.811 8.5597 18.6809 8.63535C18.6738 8.64008 18.8086 8.58334 18.7495 8.60698C18.7306 8.61407 18.7093 8.62353 18.6904 8.63062C18.6549 8.64481 18.6218 8.65663 18.5864 8.66845C18.5107 8.69446 18.435 8.71574 18.357 8.73702C18.2885 8.75357 18.2223 8.76775 18.1537 8.78194C18.1324 8.78667 17.9929 8.80558 18.104 8.7914C18.2152 8.77721 18.0638 8.79376 18.0355 8.79613C17.9504 8.80322 17.8652 8.80558 17.7801 8.80558C17.7257 8.80558 17.6737 8.80558 17.6194 8.80558C17.3427 8.80558 17.0685 8.80558 16.7919 8.80558C15.9336 8.80558 15.073 8.80558 14.2148 8.80558C13.645 8.80558 13.0705 8.7914 12.5007 8.80558C12.4912 8.80558 12.4817 8.80558 12.4723 8.80558C12.6685 9.00182 12.8671 9.20042 13.0634 9.39666C13.0634 9.19805 13.0634 8.99945 13.0634 8.80322C13.0634 8.56915 13.0965 8.29253 13.035 8.06319C12.9381 7.70619 12.6094 7.47449 12.2477 7.46503C12.2146 7.46503 12.1815 7.46503 12.1484 7.46503C11.9687 7.46503 11.7866 7.46503 11.607 7.46503C11.0537 7.46503 10.4981 7.46503 9.94486 7.46503C9.7368 7.46503 9.52638 7.46503 9.31832 7.46503C9.10553 7.46503 8.90457 7.46266 8.70833 7.57615C8.4388 7.73456 8.30404 8.02537 8.30404 8.328C8.30404 8.44621 8.30404 8.56679 8.30404 8.685C8.30404 8.92143 8.30404 9.15786 8.30404 9.39666C8.50028 9.20042 8.69888 9.00182 8.89511 8.80558C7.92339 8.80558 6.95166 8.80558 5.97994 8.80558C5.36759 8.80558 4.75287 8.80558 4.14052 8.80558C3.97975 8.80558 3.81661 8.80558 3.65584 8.80558C3.63219 8.80558 3.60619 8.80558 3.58254 8.80558C3.47142 8.80558 3.36266 8.79613 3.25391 8.78667C3.15697 8.77721 3.30829 8.79376 3.31538 8.79613C3.28464 8.78903 3.25154 8.78667 3.21844 8.77958C3.15461 8.76775 3.09314 8.75593 3.0293 8.73938C2.91581 8.71101 2.80469 8.67791 2.69593 8.63535C2.66756 8.62353 2.63683 8.61171 2.60846 8.59989C2.77868 8.65663 2.67466 8.62826 2.63446 8.60935C2.57772 8.58334 2.52098 8.55497 2.4666 8.52423C2.36493 8.46985 2.268 8.40838 2.17579 8.34454C2.13087 8.31381 2.01029 8.19559 2.14505 8.32563C2.10013 8.28307 2.04812 8.24761 2.0032 8.20505C1.91808 8.12939 1.8377 8.04664 1.76204 7.96153C1.72894 7.9237 1.6982 7.87878 1.66274 7.84332C1.78095 7.96389 1.70766 7.90242 1.67929 7.86459C1.65565 7.83149 1.632 7.79603 1.60836 7.76293C1.54689 7.67309 1.49251 7.57851 1.44049 7.48158C1.41449 7.42956 1.39084 7.37755 1.36484 7.32554C1.31282 7.21914 1.41685 7.46266 1.37429 7.35154C1.36247 7.32317 1.35065 7.29243 1.34119 7.26406C1.301 7.15531 1.2679 7.04182 1.24189 6.92833C1.23007 6.87632 1.21825 6.8243 1.20879 6.76993C1.20407 6.73919 1.19934 6.70609 1.19224 6.67299C1.23244 6.8645 1.19934 6.71791 1.19461 6.66826C1.18515 6.55477 1.18279 6.44129 1.18279 6.3278C1.18279 6.03227 1.18279 5.73909 1.18279 5.44356C1.18279 5.19058 1.18042 4.9376 1.18279 4.68698C1.18279 4.68225 1.18279 4.67753 1.18279 4.6728C1.18279 4.67989 1.18515 4.60187 1.18515 4.6066C1.20643 4.70353 1.16387 4.73191 1.18279 4.65388C1.18752 4.6326 1.20407 4.60187 1.20407 4.57823C1.19224 4.6066 1.18042 4.63497 1.1686 4.66098C1.17806 4.64206 1.18515 4.62315 1.19697 4.6066C1.21116 4.58295 1.23717 4.55458 1.24662 4.52858C1.23007 4.57823 1.15678 4.63024 1.23244 4.55458C1.28445 4.50257 1.31992 4.51912 1.20643 4.56877C1.23244 4.55695 1.25844 4.5333 1.28445 4.51912C1.301 4.50966 1.32464 4.50257 1.33883 4.49075C1.22771 4.56877 1.24662 4.52621 1.31519 4.50966C1.38139 4.49311 1.42867 4.51675 1.28209 4.50966C1.30337 4.51203 1.32701 4.5073 1.34592 4.5073H1.34829C1.46414 4.50493 1.57999 4.5073 1.69347 4.5073C2.4335 4.5073 3.17352 4.5073 3.91355 4.5073C5.10751 4.5073 6.29912 4.5073 7.49309 4.5073C8.89275 4.5073 10.29 4.5073 11.6897 4.5073C13.0184 4.5073 14.3495 4.5073 15.6783 4.5073C16.6949 4.5073 17.7092 4.5073 18.7258 4.5073C19.1561 4.5073 19.5888 4.5002 20.0191 4.5073C20.0215 4.5073 20.0238 4.5073 20.0238 4.5073C20.0167 4.5073 20.0971 4.5073 20.0877 4.50966C20.0569 4.50493 20.0262 4.5002 19.9931 4.49784C20.0144 4.50257 20.0333 4.50493 20.0546 4.51203C20.0711 4.51675 20.0995 4.53094 20.1137 4.53094C20.0853 4.51912 20.0569 4.5073 20.0309 4.49548C20.0498 4.50493 20.0688 4.51203 20.0853 4.52385C20.109 4.53803 20.1373 4.56404 20.1633 4.5735C20.1515 4.56877 20.0546 4.4742 20.1137 4.53803C20.1302 4.55695 20.1562 4.59005 20.1775 4.60423C20.1586 4.58059 20.1421 4.55695 20.1231 4.5333C20.135 4.54985 20.1468 4.5664 20.1562 4.58532C20.1681 4.60187 20.1752 4.62078 20.187 4.6397C20.2437 4.73663 20.1491 4.50257 20.1728 4.61369C20.1775 4.6397 20.1846 4.67989 20.1941 4.7059C20.1893 4.67516 20.1846 4.64443 20.1823 4.61133C20.1846 4.63024 20.187 4.65152 20.187 4.6728C20.1941 4.98252 20.4541 5.27806 20.7781 5.26387C21.0925 5.24969 21.3762 5.0038 21.3691 4.6728C21.3526 3.93277 20.7662 3.3417 20.0238 3.32751C19.9931 3.32751 19.9647 3.32751 19.934 3.32751C19.7259 3.32751 19.5202 3.32751 19.3122 3.32751C18.4209 3.32751 17.5271 3.32751 16.6358 3.32751C15.3331 3.32751 14.0304 3.32751 12.7276 3.32751C11.2972 3.32751 9.86684 3.32751 8.43644 3.32751C7.15026 3.32751 5.86409 3.32751 4.57791 3.32751C3.71022 3.32751 2.84488 3.32751 1.97719 3.32751C1.78805 3.32751 1.59654 3.32751 1.40739 3.32751C1.27027 3.32751 1.13314 3.33934 1.00074 3.37244C0.400205 3.53084 0.00536822 4.09118 0.00300392 4.70117C0.000639629 5.25441 0.00300392 5.81002 0.00300392 6.36327C0.00300392 7.37046 0.414391 8.3611 1.16624 9.03965C1.84715 9.65436 2.71485 9.983 3.63219 9.983C4.0625 9.983 4.49516 9.983 4.92546 9.983C6.16672 9.983 7.40797 9.983 8.64923 9.983C8.73198 9.983 8.81473 9.983 8.89511 9.983C9.21429 9.983 9.48619 9.71111 9.48619 9.39193C9.48619 9.21461 9.48619 9.03492 9.48619 8.8576C9.48619 8.72993 9.48619 8.59989 9.48619 8.47222C9.48619 8.41075 9.49564 8.33982 9.48619 8.27835C9.49328 8.32563 9.46254 8.41075 9.43654 8.4604C9.41053 8.51005 9.35615 8.56206 9.30414 8.5928C9.32069 8.58334 9.11736 8.66372 9.11736 8.64245H9.13627C9.17883 8.64717 9.22611 8.64245 9.26867 8.64245C9.45309 8.64245 9.63514 8.64245 9.81955 8.64245C10.335 8.64245 10.8527 8.64245 11.3682 8.64245C11.5762 8.64245 11.7819 8.64245 11.99 8.64245C12.0704 8.64245 12.1649 8.65663 12.2453 8.64245C12.1271 8.66372 11.9829 8.55497 11.9285 8.4604C11.912 8.43439 11.867 8.30199 11.8789 8.28071C11.8694 8.29962 11.8789 8.354 11.8789 8.37292C11.8789 8.49822 11.8789 8.6259 11.8789 8.7512C11.8789 8.96399 11.8789 9.17914 11.8789 9.39193C11.8789 9.71111 12.1507 9.983 12.4699 9.983C12.9641 9.983 13.4558 9.983 13.95 9.983C14.8342 9.983 15.7185 9.983 16.6051 9.983C17.1961 9.983 17.799 10.0161 18.383 9.92862C19.7685 9.72056 20.9483 8.5928 21.2651 7.23806C21.3644 6.81248 21.3644 6.38927 21.3644 5.95661C21.3644 5.55468 21.3644 5.15275 21.3644 4.75318C21.3644 4.72481 21.3644 4.6988 21.3644 4.67043C21.3644 4.36071 21.0925 4.06517 20.7733 4.07936C20.4565 4.09591 20.187 4.3418 20.187 4.6728Z" fill="white"/>
<path d="M14.1625 3.32749C13.3752 3.32749 12.5879 3.32749 11.8006 3.32749C10.557 3.32749 9.31097 3.32749 8.06735 3.32749C7.78127 3.32749 7.49519 3.32749 7.20911 3.32749C7.40535 3.52373 7.60395 3.72233 7.80018 3.91856C7.80018 3.06978 7.80018 2.221 7.80018 1.37222C7.80018 1.3273 7.80018 1.28474 7.80018 1.23982C7.80018 1.23745 7.80018 1.23509 7.80018 1.23273C7.80018 1.24218 7.80255 1.1878 7.80255 1.18308C7.80255 1.10742 7.75999 1.33439 7.80018 1.23036C7.80491 1.21618 7.8191 1.18308 7.8191 1.17125C7.81673 1.27055 7.76472 1.27765 7.79782 1.228C7.80964 1.20908 7.86875 1.13343 7.80255 1.21145C7.73162 1.29183 7.81201 1.20672 7.82619 1.19017C7.84038 1.17362 7.89949 1.1216 7.82619 1.1878C7.75053 1.25637 7.82383 1.19726 7.84274 1.18308C7.89476 1.14998 7.8853 1.20199 7.786 1.20435C7.79782 1.20435 7.83328 1.19017 7.84511 1.18544C7.94914 1.14525 7.72216 1.19017 7.79782 1.1878C7.80018 1.1878 7.85693 1.18544 7.84747 1.18544C7.84983 1.18544 7.84984 1.18544 7.8522 1.18544C7.87348 1.18544 7.89712 1.18544 7.9184 1.18544C8.23758 1.18544 8.55676 1.18544 8.87357 1.18544C9.96351 1.18544 11.0511 1.18544 12.141 1.18544C12.5311 1.18544 12.9212 1.18544 13.3114 1.18544C13.3823 1.18544 13.4508 1.18308 13.5218 1.18544H13.5241C13.5312 1.18544 13.5501 1.18544 13.5572 1.18544C13.6684 1.18544 13.4485 1.14761 13.51 1.18071C13.5241 1.1878 13.5714 1.20435 13.5856 1.20199C13.5714 1.20199 13.4556 1.13106 13.5289 1.18071C13.536 1.18544 13.5714 1.21145 13.5809 1.21381C13.5076 1.1547 13.4887 1.13815 13.5218 1.16889C13.5336 1.17835 13.5454 1.19017 13.5549 1.19963C13.5667 1.21145 13.5832 1.23509 13.5951 1.24455C13.51 1.18308 13.5265 1.15234 13.5643 1.21381C13.6045 1.28238 13.5525 1.26583 13.5501 1.17125C13.5501 1.18308 13.5643 1.2209 13.5691 1.23036C13.6069 1.3273 13.5501 1.1618 13.5643 1.16653C13.5691 1.16653 13.5667 1.22327 13.5667 1.23273C13.5667 1.23509 13.5667 1.23745 13.5667 1.23982C13.5832 2.10279 13.5667 2.97048 13.5667 3.83345C13.5667 3.86182 13.5667 3.88783 13.5667 3.9162C13.5667 4.22592 13.8386 4.52146 14.1578 4.50727C14.477 4.49309 14.7488 4.2472 14.7488 3.9162C14.7488 3.05087 14.7488 2.1879 14.7488 1.32257C14.7488 0.963196 14.6472 0.622738 14.3871 0.362666C14.1436 0.119143 13.8149 0.00329302 13.4721 0.000928727C13.1624 0.000928727 12.855 0.000928727 12.5453 0.000928727C11.4246 0.000928727 10.3016 0.000928727 9.18093 0.000928727C8.79319 0.000928727 8.40308 0.000928727 8.01534 0.000928727C7.95623 0.000928727 7.89712 -0.00143557 7.84038 0.000928727C7.16183 0.0151145 6.6275 0.551809 6.61095 1.23036C6.59203 2.09333 6.61095 2.95866 6.61095 3.82399C6.61095 3.85473 6.61095 3.88546 6.61095 3.9162C6.61095 4.23538 6.88284 4.50727 7.20202 4.50727C7.98933 4.50727 8.77664 4.50727 9.56395 4.50727C10.8076 4.50727 12.0535 4.50727 13.2972 4.50727C13.5832 4.50727 13.8693 4.50727 14.1554 4.50727C14.4651 4.50727 14.7607 4.23538 14.7465 3.9162C14.7394 3.59938 14.4935 3.32749 14.1625 3.32749Z" fill="white"/>
</svg>
