<svg width="18" height="14" viewBox="0 0 18 14" fill="none" xmlns="http://www.w3.org/2000/svg">
<path d="M6.54547 8.10238e-07C6.29077 0.00750765 6.08577 0.165344 5.99575 0.338793L5.13922 2.04546H1.84091C0.831663 2.04546 0 2.87712 0 3.88637V12.0682C0 13.0775 0.831663 13.9091 1.84091 13.9091H16.1591C17.1684 13.9091 18 13.0775 18 12.0682V3.88637C18 2.87712 17.1684 2.04546 16.1591 2.04546H12.8608L12.0043 0.338793C11.9028 0.136147 11.6812 -0.000383736 11.4546 8.10238e-07H6.54547ZM6.929 1.22728H11.0711L11.9276 2.93397C12.0291 3.13661 12.2506 3.27312 12.4773 3.27274H16.1591C16.5097 3.27274 16.7728 3.5358 16.7728 3.88637V12.0682C16.7728 12.4188 16.5097 12.6819 16.1591 12.6819H1.84091C1.49034 12.6819 1.22728 12.4188 1.22728 12.0682V3.88637C1.22728 3.5358 1.49034 3.27274 1.84091 3.27274H5.52274C5.7494 3.27274 5.97092 3.13661 6.07246 2.93397L6.929 1.22728ZM9.00002 3.88637C6.86092 3.88637 5.11365 5.63365 5.11365 7.77275C5.11365 9.91189 6.86092 11.6591 9.00002 11.6591C11.1391 11.6591 12.8864 9.91187 12.8864 7.77275C12.8864 5.63365 11.1391 3.88637 9.00002 3.88637ZM9.00002 5.11365C10.4759 5.11365 11.6591 6.29691 11.6591 7.77275C11.6591 9.24861 10.4759 10.4319 9.00002 10.4319C7.52422 10.4319 6.34093 9.24859 6.34093 7.77275C6.34093 6.29693 7.52422 5.11365 9.00002 5.11365Z" fill="black"/>
</svg>
