<svg width="13" height="17" viewBox="0 0 13 17" fill="none" xmlns="http://www.w3.org/2000/svg">
<path d="M8.74902 3.42082C8.74902 3.78582 9.04611 4.08332 9.41152 4.08332H12.2744C12.2324 4.0229 12.1861 3.96457 12.1332 3.91124L8.92152 0.699569C8.86819 0.646236 8.80986 0.600402 8.74944 0.558319V3.42124L8.74902 3.42082Z" fill="black"/>
<path d="M9.4125 4.91666C8.58792 4.91666 7.91667 4.24583 7.91667 3.42083V0.333328H1.66667C0.7475 0.333328 0 1.08083 0 2V15.3333C0 16.2525 0.7475 17 1.66667 17H10.8333C11.7525 17 12.5 16.2525 12.5 15.3333V4.91666H9.4125ZM7.63917 14.0833H2.91708C2.68708 14.0833 2.50042 13.8967 2.50042 13.6667C2.50042 13.4367 2.68708 13.25 2.91708 13.25H7.63917C7.86917 13.25 8.05584 13.4367 8.05584 13.6667C8.05584 13.8967 7.86917 14.0833 7.63917 14.0833ZM9.58375 11.5833H2.91708C2.68708 11.5833 2.50042 11.3967 2.50042 11.1667C2.50042 10.9367 2.68708 10.75 2.91708 10.75H9.58375C9.81375 10.75 10.0004 10.9367 10.0004 11.1667C10.0004 11.3967 9.81375 11.5833 9.58375 11.5833ZM9.58375 9.08333H2.91708C2.68708 9.08333 2.50042 8.89666 2.50042 8.66666C2.50042 8.43666 2.68708 8.25 2.91708 8.25H9.58375C9.81375 8.25 10.0004 8.43666 10.0004 8.66666C10.0004 8.89666 9.81375 9.08333 9.58375 9.08333Z" fill="black"/>
</svg>
