<svg width="20" height="20" viewBox="0 0 20 20" fill="none" xmlns="http://www.w3.org/2000/svg">
<path fill-rule="evenodd" clip-rule="evenodd" d="M13.6673 18.8224H16.3799C16.5212 18.8219 16.6565 18.7666 16.7565 18.6685C16.8565 18.5705 16.913 18.4376 16.9138 18.2988V10.2732C16.915 9.87132 17.0606 9.4828 17.3249 9.17612C17.5892 8.86944 17.9553 8.66431 18.3585 8.5969C18.4834 8.57736 18.5969 8.51435 18.6784 8.41937C18.7598 8.32439 18.8038 8.20379 18.8022 8.0796V6.44448C18.8066 6.35201 18.7842 6.26022 18.7376 6.17974C18.6911 6.09925 18.6223 6.03337 18.5392 5.98971L10.2713 1.25191C10.1897 1.20264 10.0958 1.17655 10 1.17655C9.90422 1.17655 9.81031 1.20264 9.72871 1.25191L1.46083 5.98971C1.37801 6.03335 1.30942 6.09908 1.26296 6.17934C1.21651 6.2596 1.19407 6.35112 1.19824 6.44336V8.04744C1.1979 8.17089 1.2422 8.29046 1.32324 8.38481C1.40454 8.47983 1.51742 8.54356 1.64191 8.56474C2.04618 8.63042 2.41347 8.83526 2.67809 9.14262C2.94271 9.44998 3.08739 9.83981 3.08625 10.2424V18.2988C3.08667 18.4378 3.14305 18.5709 3.24307 18.6693C3.34309 18.7676 3.47864 18.823 3.62012 18.8235H6.33296C6.47441 18.8229 6.60989 18.7674 6.70988 18.6691C6.80988 18.5708 6.86629 18.4377 6.86683 18.2988V12.3745C6.86683 11.5582 7.19693 10.7752 7.78452 10.198C8.3721 9.62069 9.16903 9.29638 10 9.29638C10.831 9.29638 11.6279 9.62069 12.2155 10.198C12.8031 10.7752 13.1332 11.5582 13.1332 12.3745V18.2988C13.1337 18.4378 13.1902 18.5709 13.2902 18.6692C13.3902 18.7675 13.5258 18.8229 13.6673 18.8235V18.8224ZM16.3799 19.9989H13.6673C13.2084 19.9982 12.7686 19.8189 12.444 19.5003C12.1195 19.1816 11.9368 18.7495 11.9359 18.2988V12.3745C11.9359 11.8701 11.7319 11.3864 11.3689 11.0297C11.0058 10.6731 10.5134 10.4727 10 10.4727C9.48658 10.4727 8.99419 10.6731 8.63115 11.0297C8.2681 11.3864 8.06415 11.8701 8.06415 12.3745V18.2988C8.06354 18.7497 7.88094 19.1821 7.55638 19.501C7.23181 19.8199 6.79177 19.9993 6.33274 20H3.61989C3.16085 19.9993 2.72081 19.8199 2.39625 19.501C2.07168 19.1821 1.88908 18.7497 1.88847 18.2988V10.2424C1.89029 10.1181 1.84642 9.99739 1.76491 9.90236C1.68341 9.80734 1.56975 9.74438 1.4448 9.72507C1.04152 9.65765 0.675429 9.45249 0.411096 9.14576C0.146764 8.83904 0.00117613 8.45046 1.30958e-05 8.04856V6.44336C-0.00117061 6.14556 0.0779105 5.85277 0.22922 5.59473C0.38053 5.33669 0.598674 5.1226 0.861485 4.97422L9.13006 0.236203C9.39296 0.0816316 9.69361 0 10 0C10.3064 0 10.607 0.0816316 10.8699 0.236203L19.1385 4.97422C19.4013 5.1226 19.6195 5.33669 19.7708 5.59473C19.9221 5.85277 20.0012 6.14556 20 6.44336V8.07848C20.0007 8.48089 19.8558 8.87045 19.5912 9.17757C19.3265 9.48468 18.9593 9.68934 18.5552 9.75498C18.4311 9.77615 18.3186 9.83962 18.2375 9.93424C18.1563 10.0289 18.1117 10.1486 18.1115 10.2723V18.2988C18.1109 18.7498 17.9283 19.1821 17.6037 19.5011C17.2791 19.82 16.839 19.9994 16.3799 20V19.9989Z" fill="#FF7979"/>
</svg>
