<svg width="21" height="21" viewBox="0 0 21 21" fill="none" xmlns="http://www.w3.org/2000/svg">
<path d="M17.6504 0C18.9502 0 20.0213 1.07109 20.0213 2.37095V12.9085C20.0213 14.2083 18.9502 15.2794 17.6504 15.2794H16.1521L16.6049 19.6755C16.6213 19.8375 16.5874 20.0005 16.5077 20.1424C16.428 20.2843 16.3065 20.3982 16.1597 20.4684C16.0129 20.5387 15.848 20.5619 15.6875 20.5349C15.527 20.5079 15.3787 20.4321 15.263 20.3177L10.2082 15.2794H2.37095C1.07111 15.2794 0 14.2083 0 12.9085V2.37095C0 1.07109 1.07111 0 2.37095 0H17.6504ZM17.6504 1.58063H2.37095C1.91944 1.58063 1.58063 1.91941 1.58063 2.37095V12.9085C1.58063 13.36 1.91944 13.6988 2.37095 13.6988H10.5375C10.6414 13.6985 10.7443 13.7188 10.8404 13.7583C10.9364 13.7979 11.0238 13.856 11.0973 13.9293L14.8102 17.6257L14.4973 14.5632C14.4871 14.454 14.4996 14.3439 14.5342 14.2399C14.5688 14.1359 14.6246 14.0402 14.6982 13.9589C14.7717 13.8776 14.8614 13.8125 14.9614 13.7677C15.0615 13.7229 15.1698 13.6995 15.2794 13.6988H17.6504C18.1019 13.6988 18.4407 13.36 18.4407 12.9085V2.37095C18.4407 1.91941 18.1019 1.58063 17.6504 1.58063ZM15.2794 6.32252C16.0069 6.32252 16.5966 6.91223 16.5966 7.63971C16.5966 8.36717 16.0069 8.95691 15.2794 8.95691C14.552 8.95691 13.9622 8.36717 13.9622 7.63971C13.9622 6.91223 14.552 6.32252 15.2794 6.32252ZM10.0024 6.32252C10.7299 6.32252 11.3196 6.91223 11.3196 7.63971C11.3196 8.36717 10.7299 8.95691 10.0024 8.95691C9.27497 8.95691 8.68524 8.36717 8.68524 7.63971C8.68524 6.91223 9.27497 6.32252 10.0024 6.32252ZM4.74189 6.32252C5.46936 6.32252 6.05908 6.91223 6.05908 7.63971C6.05908 8.36717 5.46936 8.95691 4.74189 8.95691C4.01443 8.95691 3.4247 8.36717 3.4247 7.63971C3.4247 6.91223 4.01443 6.32252 4.74189 6.32252Z" fill="#FF7979"/>
</svg>
