<svg width="14" height="14" viewBox="0 0 14 14" fill="none" xmlns="http://www.w3.org/2000/svg">
<path d="M12.7179 9.49053L9.46105 8.01685C8.72421 8.63579 7.79579 9.00421 6.80842 9.00421C5.82105 9.00421 4.89263 8.63579 4.15579 8.01685L0.898947 9.49053C0.353684 9.74106 0 10.2863 0 10.8905V12.4674C0 13.3074 0.692632 14 1.53263 14H12.0989C12.9389 14 13.6316 13.3074 13.6316 12.4674V10.8905C13.6168 10.2863 13.2632 9.74106 12.7179 9.49053Z" fill="white"/>
<path d="M6.8086 7.95789C8.69683 7.95789 10.2275 6.17646 10.2275 3.97895C10.2275 1.78144 8.69683 0 6.8086 0C4.92036 0 3.38965 1.78144 3.38965 3.97895C3.38965 6.17646 4.92036 7.95789 6.8086 7.95789Z" fill="white"/>
</svg>
