<svg width="117" height="117" viewBox="0 0 117 117" fill="none" xmlns="http://www.w3.org/2000/svg">
<path d="M0 5C0 2.23858 2.23858 0 5 0H112C114.761 0 117 2.23858 117 5V112C117 114.761 114.761 117 112 117H5C2.23858 117 0 114.761 0 112V5Z" fill="#F7F7F7"/>
<path d="M97.1046 74.5274L75.8189 64.8958C71.0031 68.941 64.9352 71.3489 58.482 71.3489C52.0289 71.3489 45.961 68.941 41.1452 64.8958L19.8594 74.5274C16.2957 76.1647 13.9841 79.7284 13.9841 83.6774V93.9831C13.9841 99.4731 18.511 104 24.001 104H93.0594C98.5494 104 103.076 99.4731 103.076 93.9831V83.6774C102.98 79.7284 100.668 76.1647 97.1046 74.5274Z" fill="#D7D7D7"/>
<path d="M58.482 64.5105C70.8229 64.5105 80.8272 52.8676 80.8272 38.5053C80.8272 24.143 70.8229 12.5 58.482 12.5C46.141 12.5 36.1367 24.143 36.1367 38.5053C36.1367 52.8676 46.141 64.5105 58.482 64.5105Z" fill="#D7D7D7"/>
</svg>
