<svg width="21" height="21" viewBox="0 0 21 21" fill="none" xmlns="http://www.w3.org/2000/svg">
<path d="M10.35 20.7C16.0603 20.7 20.7 16.0603 20.7 10.35C20.7 4.63965 16.0603 0 10.35 0C4.63965 0 0 4.63965 0 10.35C0 16.0603 4.63965 20.7 10.35 20.7ZM4.63965 16.8839C6.2045 15.0171 8.23606 14.0013 10.35 14.0013C12.4639 14.0013 14.4955 15.0171 16.0603 16.8839C14.5504 18.2291 12.5463 19.0527 10.35 19.0527C8.1537 19.0527 6.14959 18.2291 4.63965 16.8839ZM10.35 1.64721C15.1543 1.64721 19.0527 5.54561 19.0527 10.35C19.0527 12.3541 18.3664 14.2209 17.2134 15.676C15.3191 13.5346 12.9306 12.3541 10.35 12.3541C7.76935 12.3541 5.38089 13.5346 3.4866 15.676C2.33355 14.1935 1.64721 12.3541 1.64721 10.35C1.64721 5.54561 5.54561 1.64721 10.35 1.64721Z" fill="#FF7979"/>
<path d="M10.3507 11.5305C12.6568 11.5305 14.5236 9.66366 14.5236 7.35757C14.5236 5.05147 12.6568 3.18463 10.3507 3.18463C8.04457 3.18463 6.17773 5.05147 6.17773 7.35757C6.17773 9.66366 8.04457 11.5305 10.3507 11.5305ZM10.3507 4.83184C11.7508 4.83184 12.8764 5.95744 12.8764 7.35757C12.8764 8.7577 11.7508 9.88329 10.3507 9.88329C8.95054 9.88329 7.82495 8.7577 7.82495 7.35757C7.82495 5.98489 8.95054 4.83184 10.3507 4.83184Z" fill="#FF7979"/>
</svg>
