<svg width="27" height="27" viewBox="0 0 27 27" fill="none" xmlns="http://www.w3.org/2000/svg">
<path d="M10.2472 22.7741H1.48286V6.48107H5.73927C6.14822 6.48107 6.47981 6.14949 6.47981 5.74054V1.48106H18.1444V9.75523C18.1444 10.1642 18.476 10.4958 18.8849 10.4958C19.2939 10.4958 19.6254 10.1642 19.6254 9.75523V0.740519C19.6254 0.331567 19.2939 0 18.8849 0H5.61037C5.41367 0 5.22509 0.0782863 5.08625 0.217495C3.18575 2.1216 2.11925 3.18828 0.218761 5.08878C0.0798995 5.22762 0.00180407 5.41601 0.00180407 5.61236V5.72262C0.00164795 5.72872 0 5.73439 0 5.74054C0 5.74668 0.00164793 5.75235 0.00180407 5.75845V23.5147C0.00180407 23.9236 0.333371 24.2552 0.742323 24.2552H10.2472C10.6561 24.2552 10.9877 23.9236 10.9877 23.5147C10.9877 23.1057 10.6561 22.7741 10.2472 22.7741ZM4.99875 2.40137V5.00002H2.40196C3.31439 4.08749 4.08631 3.31515 4.99875 2.40137Z" fill="white"/>
<path d="M14.8639 10.745C14.8639 10.3361 14.5324 10.0045 14.1234 10.0045H5.5003C5.09135 10.0045 4.75977 10.3361 4.75977 10.745C4.75977 11.154 5.09135 11.4856 5.5003 11.4856H14.1234C14.5324 11.4856 14.8639 11.154 14.8639 10.745Z" fill="white"/>
<path d="M11.5104 14.4492C11.5104 14.0402 11.1788 13.7086 10.7699 13.7086H5.5003C5.09135 13.7086 4.75977 14.0402 4.75977 14.4492C4.75977 14.8581 5.09135 15.1897 5.5003 15.1897H10.7699C11.1788 15.1897 11.5104 14.8581 11.5104 14.4492Z" fill="white"/>
<path d="M5.50152 17.414C5.09257 17.414 4.76099 17.7456 4.76099 18.1545C4.76099 18.5635 5.09257 18.8951 5.50152 18.8951H9.44335C9.8523 18.8951 10.1839 18.5635 10.1839 18.1545C10.1839 17.7456 9.8523 17.414 9.44335 17.414H5.50152Z" fill="white"/>
<path d="M18.883 11.764C14.6825 11.764 11.2651 15.1816 11.2651 19.3821C11.2651 23.5827 14.6825 27 18.883 27C23.0836 27 26.5009 23.5827 26.5009 19.3821C26.5009 15.1816 23.0836 11.764 18.883 11.764ZM18.883 25.519C15.4991 25.519 12.7462 22.766 12.7462 19.3821C12.7462 15.9982 15.4991 13.2451 18.883 13.2451C22.2669 13.2451 25.0199 15.9982 25.0199 19.3821C25.0199 22.766 22.2669 25.519 18.883 25.519Z" fill="white"/>
<path d="M19.4596 15.8594C19.1783 15.5108 18.5878 15.5108 18.3065 15.8594L15.6619 19.1401C15.4051 19.4586 15.4552 19.9247 15.7736 20.1814C15.9106 20.2917 16.0748 20.3454 16.2379 20.3454C16.4543 20.3454 16.6687 20.2512 16.815 20.0697L18.1425 18.4227V22.4399C18.1425 22.8488 18.4741 23.1804 18.883 23.1804C19.292 23.1804 19.6236 22.8488 19.6236 22.4399V18.4227L20.9513 20.0697C21.2075 20.3879 21.674 20.4383 21.9927 20.1814C22.3111 19.9247 22.3612 19.4584 22.1044 19.1401L19.4596 15.8594Z" fill="white"/>
</svg>
