<svg width="14" height="17" viewBox="0 0 14 17" fill="none" xmlns="http://www.w3.org/2000/svg">
<path d="M13.1119 6.30084C12.4239 6.30084 11.982 4.66141 11.9294 1.91538L11.9187 1.35362L8.52385 0L8.54183 1.29985C8.54227 1.31763 8.54294 1.3352 8.54405 1.35362C8.53317 2.16648 7.84466 2.82487 6.99989 2.82487C6.15512 2.82487 5.4666 2.16691 5.45573 1.35384C5.45684 1.33606 5.4575 1.31806 5.45795 1.29985L5.47592 0L2.08108 1.35362L2.07042 1.91538C2.01782 4.66141 1.57568 6.30084 0.887832 6.30084H0V15.2282C0 16.2051 0.823242 17 1.83537 17H12.1646C13.1768 17 14 16.2054 14 15.2282V6.30084H13.1119ZM1.77566 9.1797H3.3378V12.3934H1.77566V9.1797ZM12.2241 12.3934H10.662V9.1797H12.2241V12.3934Z" fill="white"/>
</svg>
